  0
SECTION
  2
HEADER
  9
$ACADVER
  1
AC1009
  9
$DWGCODEPAGE
  3
ansi_936
  9
$INSBASE
 10
0.0
 20
0.0
 30
0.0
  9
$EXTMIN
 10
0.0
 20
0.0
 30
0.0
  9
$EXTMAX
 10
841.0
 20
594.0
 30
0.0
  9
$LIMMIN
 10
0.0
 20
0.0
  9
$LIMMAX
 10
841.0
 20
594.0
  9
$ORTHOMODE
 70
     0
  9
$REGENMODE
 70
     1
  9
$FILLMODE
 70
     1
  9
$QTEXTMODE
 70
     0
  9
$MIRRTEXT
 70
     1
  9
$DRAGMODE
 70
     2
  9
$LTSCALE
 40
1.0
  9
$OSMODE
 70
    37
  9
$ATTMODE
 70
     1
  9
$TEXTSIZE
 40
3.175
  9
$TRACEWID
 40
1.0
  9
$TEXTSTYLE
  7
STANDARD
  9
$CLAYER
  8
0
  9
$CELTYPE
  6
BYLAYER
  9
$CECOLOR
 62
   256
  9
$DIMSCALE
 40
1.0
  9
$DIMASZ
 40
3.302
  9
$DIMEXO
 40
1.27
  9
$DIMDLI
 40
3.75
  9
$DIMRND
 40
0.0
  9
$DIMDLE
 40
0.0
  9
$DIMEXE
 40
3.175
  9
$DIMTP
 40
0.0
  9
$DIMTM
 40
0.0
  9
$DIMTXT
 40
3.175
  9
$DIMCEN
 40
2.5
  9
$DIMTSZ
 40
0.0
  9
$DIMTOL
 70
     0
  9
$DIMLIM
 70
     0
  9
$DIMTIH
 70
     1
  9
$DIMTOH
 70
     1
  9
$DIMSE1
 70
     0
  9
$DIMSE2
 70
     0
  9
$DIMTAD
 70
     0
  9
$DIMZIN
 70
     0
  9
$DIMBLK
  1

  9
$DIMASO
 70
     1
  9
$DIMSHO
 70
     1
  9
$DIMPOST
  1

  9
$DIMAPOST
  1

  9
$DIMALT
 70
     0
  9
$DIMALTD
 70
     3
  9
$DIMALTF
 40
0.0393700787
  9
$DIMLFAC
 40
1.0
  9
$DIMTOFL
 70
     1
  9
$DIMTVP
 40
0.0
  9
$DIMTIX
 70
     0
  9
$DIMSOXD
 70
     0
  9
$DIMSAH
 70
     0
  9
$DIMBLK1
  1

  9
$DIMBLK2
  1

  9
$DIMSTYLE
  2
ISO-25
  9
$DIMCLRD
 70
     0
  9
$DIMCLRE
 70
     0
  9
$DIMCLRT
 70
     0
  9
$DIMTFAC
 40
1.0
  9
$DIMGAP
 40
1.524
  9
$LUNITS
 70
     2
  9
$LUPREC
 70
     2
  9
$SKETCHINC
 40
1.0
  9
$FILLETRAD
 40
10.0
  9
$AUNITS
 70
     0
  9
$AUPREC
 70
     2
  9
$MENU
  1
.
  9
$ELEVATION
 40
0.0
  9
$PELEVATION
 40
0.0
  9
$THICKNESS
 40
0.0
  9
$LIMCHECK
 70
     0
  9
$CHAMFERA
 40
10.0
  9
$CHAMFERB
 40
10.0
  9
$SKPOLY
 70
     0
  9
$TDCREATE
 40
2456987.703764051
  9
$TDUPDATE
 40
2456987.703764062
  9
$TDINDWG
 40
0.0000000116
  9
$TDUSRTIMER
 40
0.0000000116
  9
$USRTIMER
 70
     1
  9
$ANGBASE
 50
0.0
  9
$ANGDIR
 70
     0
  9
$PDMODE
 70
     0
  9
$PDSIZE
 40
-1.0
  9
$PLINEWID
 40
0.0
  9
$COORDS
 70
     1
  9
$SPLFRAME
 70
     0
  9
$SPLINETYPE
 70
     6
  9
$SPLINESEGS
 70
     8
  9
$ATTDIA
 70
     0
  9
$ATTREQ
 70
     1
  9
$HANDLING
 70
     1
  9
$HANDSEED
  5
179
  9
$SURFTAB1
 70
     6
  9
$SURFTAB2
 70
     6
  9
$SURFTYPE
 70
     6
  9
$SURFU
 70
     6
  9
$SURFV
 70
     6
  9
$UCSNAME
  2

  9
$UCSORG
 10
0.0
 20
0.0
 30
0.0
  9
$UCSXDIR
 10
1.0
 20
0.0
 30
0.0
  9
$UCSYDIR
 10
0.0
 20
1.0
 30
0.0
  9
$PUCSNAME
  2

  9
$PUCSORG
 10
0.0
 20
0.0
 30
0.0
  9
$PUCSXDIR
 10
1.0
 20
0.0
 30
0.0
  9
$PUCSYDIR
 10
0.0
 20
1.0
 30
0.0
  9
$USERI1
 70
     0
  9
$USERI2
 70
     0
  9
$USERI3
 70
     0
  9
$USERI4
 70
     0
  9
$USERI5
 70
     0
  9
$USERR1
 40
0.0
  9
$USERR2
 40
0.0
  9
$USERR3
 40
0.0
  9
$USERR4
 40
0.0
  9
$USERR5
 40
0.0
  9
$WORLDVIEW
 70
     1
  9
$SHADEDGE
 70
     3
  9
$SHADEDIF
 70
    70
  9
$TILEMODE
 70
     1
  9
$MAXACTVP
 70
    64
  9
$PLIMCHECK
 70
     0
  9
$PEXTMIN
 10
1.0000000000E+20
 20
1.0000000000E+20
 30
1.0000000000E+20
  9
$PEXTMAX
 10
-1.0000000000E+20
 20
-1.0000000000E+20
 30
-1.0000000000E+20
  9
$PLIMMIN
 10
0.0
 20
0.0
  9
$PLIMMAX
 10
420.0
 20
297.0
  9
$UNITMODE
 70
     0
  9
$VISRETAIN
 70
     1
  9
$PLINEGEN
 70
     0
  9
$PSLTSCALE
 70
     1
  0
ENDSEC
  0
SECTION
  2
TABLES
  0
TABLE
  2
VPORT
 70
     1
  0
VPORT
  2
*ACTIVE
 70
     0
 10
0.0
 20
0.0
 11
1.0
 21
1.0
 12
420.5
 22
297.0
 13
0.0
 23
0.0
 14
10.0
 24
10.0
 15
10.0
 25
10.0
 16
0.0
 26
0.0
 36
1.0
 17
0.0
 27
0.0
 37
0.0
 40
594.0
 41
1.4158249158
 42
50.0
 43
0.0
 44
0.0
 50
0.0
 51
0.0
 71
     0
 72
  2000
 73
     1
 74
     3
 75
     0
 76
     0
 77
     0
 78
     0
  0
ENDTAB
  0
TABLE
  2
LTYPE
 70
     6
  0
LTYPE
  2
CONTINUOUS
 70
     0
  3
Solid line
 72
    65
 73
     0
 40
0.0
  0
LTYPE
  2
HIDDEN
 70
     0
  3
Hidden __ __ __ __ __ __ __ __ __ __ __ __ __ __
 72
    65
 73
     2
 40
1.905
 49
1.27
 49
-0.635
  0
LTYPE
  2
PHANTOM
 70
     0
  3
Phantom ______  __  __  ______  __  __  ______
 72
    65
 73
     6
 40
12.7
 49
6.35
 49
-1.27
 49
1.27
 49
-1.27
 49
1.27
 49
-1.27
  0
LTYPE
  2
CENTER
 70
     0
  3
Center ____ _ ____ _ ____ _ ____ _ ____ _ ____
 72
    65
 73
     4
 40
10.16
 49
6.35
 49
-1.27
 49
1.27
 49
-1.27
  0
LTYPE
  2
CENTERX2
 70
     0
  3
Center (2x) ________  __  ________  __  _____
 72
    65
 73
     4
 40
20.32
 49
12.7
 49
-2.54
 49
2.54
 49
-2.54
  0
LTYPE
  2
DOT2
 70
     0
  3
Dot (.5x) ........................................
 72
    65
 73
     2
 40
0.635
 49
0.0
 49
-0.635
  0
ENDTAB
  0
TABLE
  2
LAYER
 70
     2
  0
LAYER
  2
0
 70
     0
 62
     7
  6
CONTINUOUS
  0
LAYER
  2
FORMAT
 70
     0
 62
     7
  6
CONTINUOUS
  0
ENDTAB
  0
TABLE
  2
STYLE
 70
     1
  0
STYLE
  2
STANDARD
 70
     0
 40
0.0
 41
1.0
 50
0.0
 71
     0
 42
2.5
  3
txt
  4

  0
ENDTAB
  0
TABLE
  2
VIEW
 70
     0
  0
ENDTAB
  0
TABLE
  2
UCS
 70
     0
  0
ENDTAB
  0
TABLE
  2
APPID
 70
     1
  0
APPID
  2
ACAD
 70
     0
  0
ENDTAB
  0
TABLE
  2
DIMSTYLE
 70
     2
  0
DIMSTYLE
  2
ISO-25
 70
     0
  3

  4

  5

  6

  7

 40
1.0
 41
2.5
 42
0.625
 43
3.75
 44
1.25
 45
0.0
 46
0.0
 47
0.0
 48
0.0
140
2.5
141
2.5
142
0.0
143
0.0393700787
144
1.0
145
0.0
146
1.0
147
0.625
 71
     0
 72
     0
 73
     0
 74
     0
 75
     0
 76
     0
 77
     1
 78
     8
170
     0
171
     3
172
     1
173
     0
174
     0
175
     0
176
     0
177
     0
178
     0
  0
DIMSTYLE
  2
SLDDIMSTYLE0
 70
     0
  3

  4

  5

  6

  7

 40
1.0
 41
3.302
 42
0.0625
 43
0.38
 44
0.0
 45
0.000000001
 46
0.0
 47
0.0
 48
0.0
140
3.175
141
0.09
142
0.0
143
25.4
144
1.0
145
0.0
146
1.0
147
0.79375
 71
     0
 72
     0
 73
     1
 74
     1
 75
     0
 76
     0
 77
     0
 78
    12
170
     0
171
     2
172
     0
173
     1
174
     0
175
     0
176
     0
177
     0
178
     0
  0
ENDTAB
  0
ENDSEC
  0
SECTION
  2
BLOCKS
  0
BLOCK
  8
0
  2
$MODEL_SPACE
 70
     0
 10
0.0
 20
0.0
 30
0.0
  3
$MODEL_SPACE
  1

  0
ENDBLK
  5
21
  8
0
  0
BLOCK
 67
     1
  8
0
  2
$PAPER_SPACE
 70
     0
 10
0.0
 20
0.0
 30
0.0
  3
$PAPER_SPACE
  1

  0
ENDBLK
  5
1D
 67
     1
  8
0
  0
BLOCK
  8
0
  2
*D1
 70
     1
 10
0.0
 20
0.0
 30
0.0
  3
*D1
  1

  0
SOLID
  5
162
  8
0
  6
CONTINUOUS
 62
     7
 10
417.6749568122
 20
308.5535722979
 30
0.0
 11
418.1829568122
 21
311.8555722979
 31
0.0
 12
417.1669568122
 22
311.8555722979
 32
0.0
 13
417.1669568122
 23
311.8555722979
 33
0.0
  0
SOLID
  5
163
  8
0
  6
CONTINUOUS
 62
     7
 10
417.6749568122
 20
538.5535722979
 30
0.0
 11
417.1669568122
 21
535.2515722979
 31
0.0
 12
418.1829568122
 22
535.2515722979
 32
0.0
 13
418.1829568122
 23
535.2515722979
 33
0.0
  0
LINE
  5
164
  8
0
  6
CONTINUOUS
 62
     7
 10
403.4449568122
 20
308.5535722979
 30
0.0
 11
420.8499568122
 21
308.5535722979
 31
0.0
  0
LINE
  5
165
  8
0
  6
CONTINUOUS
 62
     7
 10
403.4449568122
 20
538.5535722979
 30
0.0
 11
420.8499568122
 21
538.5535722979
 31
0.0
  0
LINE
  5
166
  8
0
  6
CONTINUOUS
 62
     7
 10
417.6749568122
 20
308.5535722979
 30
0.0
 11
417.6749568122
 21
421.0337255265
 31
0.0
  0
LINE
  5
167
  8
0
  6
CONTINUOUS
 62
     7
 10
417.6749568122
 20
538.5535722979
 30
0.0
 11
417.6749568122
 21
426.0734190692
 31
0.0
  0
TEXT
  5
168
  8
0
  6
CONTINUOUS
 62
     7
 10
414.1566801881
 20
422.1553260485
 30
0.0
 40
3.175
  1
230
 41
0.7
 11
414.1566801881
 21
421.0337253519
 31
0.0
 73
     1
  0
ENDBLK
  5
161
  8
0
  0
ENDSEC
  0
SECTION
  2
ENTITIES
  0
LINE
  5
41
  8
0
  6
CONTINUOUS
 62
     7
 10
192.0301879661
 20
525.3913168974
 30
0.0
 11
195.2301825302
 21
525.3913168974
 31
0.0
  0
LINE
  5
42
  8
0
  6
CONTINUOUS
 62
     7
 10
192.0301879661
 20
521.1913203068
 30
0.0
 11
192.0301879661
 21
525.3913168974
 31
0.0
  0
LINE
  5
43
  8
0
  6
CONTINUOUS
 62
     7
 10
192.0301879661
 20
521.1913203068
 30
0.0
 11
195.2301825302
 21
521.1913203068
 31
0.0
  0
LINE
  5
44
  8
0
  6
CONTINUOUS
 62
     7
 10
195.2301825302
 20
521.1913203068
 30
0.0
 11
195.2301825302
 21
525.3913168974
 31
0.0
  0
LINE
  5
45
  8
0
  6
CONTINUOUS
 62
     7
 10
152.0301814096
 20
525.3913168974
 30
0.0
 11
155.2301834243
 21
525.3913168974
 31
0.0
  0
LINE
  5
46
  8
0
  6
CONTINUOUS
 62
     7
 10
152.0301814096
 20
521.1913203068
 30
0.0
 11
152.0301814096
 21
525.3913168974
 31
0.0
  0
LINE
  5
47
  8
0
  6
CONTINUOUS
 62
     7
 10
152.0301814096
 20
521.1913203068
 30
0.0
 11
155.2301834243
 21
521.1913203068
 31
0.0
  0
LINE
  5
48
  8
0
  6
CONTINUOUS
 62
     7
 10
155.2301834243
 20
521.1913203068
 30
0.0
 11
155.2301834243
 21
525.3913168974
 31
0.0
  0
LINE
  5
49
  8
0
  6
CONTINUOUS
 62
     7
 10
112.0301823037
 20
525.3913168974
 30
0.0
 11
115.2301843183
 21
525.3913168974
 31
0.0
  0
LINE
  5
4A
  8
0
  6
CONTINUOUS
 62
     7
 10
112.0301823037
 20
521.1913203068
 30
0.0
 11
112.0301823037
 21
525.3913168974
 31
0.0
  0
LINE
  5
4B
  8
0
  6
CONTINUOUS
 62
     7
 10
112.0301823037
 20
521.1913203068
 30
0.0
 11
115.2301843183
 21
521.1913203068
 31
0.0
  0
LINE
  5
4C
  8
0
  6
CONTINUOUS
 62
     7
 10
115.2301843183
 20
521.1913203068
 30
0.0
 11
115.2301843183
 21
525.3913168974
 31
0.0
  0
LINE
  5
4D
  8
0
  6
CONTINUOUS
 62
     7
 10
72.0301831978
 20
525.3913168974
 30
0.0
 11
75.2301852124
 21
525.3913168974
 31
0.0
  0
LINE
  5
4E
  8
0
  6
CONTINUOUS
 62
     7
 10
72.0301831978
 20
521.1913203068
 30
0.0
 11
72.0301831978
 21
525.3913168974
 31
0.0
  0
LINE
  5
4F
  8
0
  6
CONTINUOUS
 62
     7
 10
72.0301831978
 20
521.1913203068
 30
0.0
 11
75.2301852124
 21
521.1913203068
 31
0.0
  0
LINE
  5
50
  8
0
  6
CONTINUOUS
 62
     7
 10
75.2301852124
 20
521.1913203068
 30
0.0
 11
75.2301852124
 21
525.3913168974
 31
0.0
  0
LINE
  5
51
  8
0
  6
CONTINUOUS
 62
     7
 10
37.1372902671
 20
455.8913176126
 30
0.0
 11
37.7230763341
 21
455.8913176126
 31
0.0
  0
ARC
  5
52
  8
0
  6
CONTINUOUS
 62
     7
 10
38.0766299545
 20
456.2448756005
 30
0.0
 40
0.5000000951301175
 50
225.0
 51
45.0
  0
LINE
  5
53
  8
0
  6
CONTINUOUS
 62
     7
 10
38.4301834645
 20
456.5984224148
 30
0.0
 11
38.4301834645
 21
470.1842134066
 31
0.0
  0
ARC
  5
54
  8
0
  6
CONTINUOUS
 62
     7
 10
38.0766299545
 20
470.5377686847
 30
0.0
 40
0.5000000951301576
 50
315.0
 51
135.0
  0
LINE
  5
55
  8
0
  6
CONTINUOUS
 62
     7
 10
37.7230763341
 20
470.8913182087
 30
0.0
 11
37.1372902671
 21
470.8913182087
 31
0.0
  0
ARC
  5
56
  8
0
  6
CONTINUOUS
 62
     7
 10
36.7837368702
 20
470.5377686847
 30
0.0
 40
0.5000000951301576
 50
45.0
 51
225.0
  0
LINE
  5
57
  8
0
  6
CONTINUOUS
 62
     7
 10
36.4301836023
 20
470.1842134066
 30
0.0
 11
36.4301836023
 21
456.5984224148
 31
0.0
  0
ARC
  5
58
  8
0
  6
CONTINUOUS
 62
     7
 10
36.7837368702
 20
456.2448756005
 30
0.0
 40
0.5000000951301175
 50
135.0
 51
315.0
  0
LINE
  5
59
  8
0
  6
CONTINUOUS
 62
     7
 10
37.1372902671
 20
315.8913226045
 30
0.0
 11
37.7230763341
 21
315.8913226045
 31
0.0
  0
ARC
  5
5A
  8
0
  6
CONTINUOUS
 62
     7
 10
38.0766299545
 20
316.2448756005
 30
0.0
 40
0.5000000951301175
 50
225.0
 51
45.0
  0
LINE
  5
5B
  8
0
  6
CONTINUOUS
 62
     7
 10
38.4301834645
 20
316.5984292693
 30
0.0
 11
38.4301834645
 21
330.1842146732
 31
0.0
  0
ARC
  5
5C
  8
0
  6
CONTINUOUS
 62
     7
 10
38.0766299545
 20
330.5377686847
 30
0.0
 40
0.5000000951301576
 50
315.0
 51
135.0
  0
LINE
  5
5D
  8
0
  6
CONTINUOUS
 62
     7
 10
37.7230763341
 20
330.8913213379
 30
0.0
 11
37.1372902671
 21
330.8913213379
 31
0.0
  0
ARC
  5
5E
  8
0
  6
CONTINUOUS
 62
     7
 10
36.7837368702
 20
330.5377686847
 30
0.0
 40
0.5000000951301576
 50
45.0
 51
225.0
  0
LINE
  5
5F
  8
0
  6
CONTINUOUS
 62
     7
 10
36.4301836023
 20
330.1842146732
 30
0.0
 11
36.4301836023
 21
316.5984292693
 31
0.0
  0
ARC
  5
60
  8
0
  6
CONTINUOUS
 62
     7
 10
36.7837368702
 20
316.2448756005
 30
0.0
 40
0.5000000951301175
 50
135.0
 51
315.0
  0
LINE
  5
61
  8
0
  6
CONTINUOUS
 62
     7
 10
37.1372902671
 20
385.8913247652
 30
0.0
 11
37.7230763341
 21
385.8913247652
 31
0.0
  0
ARC
  5
62
  8
0
  6
CONTINUOUS
 62
     7
 10
38.0766299545
 20
386.2448756005
 30
0.0
 40
0.5000000951301175
 50
225.0
 51
45.0
  0
LINE
  5
63
  8
0
  6
CONTINUOUS
 62
     7
 10
38.4301834645
 20
386.5984295673
 30
0.0
 11
38.4301834645
 21
400.1842131085
 31
0.0
  0
ARC
  5
64
  8
0
  6
CONTINUOUS
 62
     7
 10
38.0766299545
 20
400.5377686847
 30
0.0
 40
0.5000000951301576
 50
315.0
 51
135.0
  0
LINE
  5
65
  8
0
  6
CONTINUOUS
 62
     7
 10
37.7230763341
 20
400.8913253612
 30
0.0
 11
37.1372902671
 21
400.8913253612
 31
0.0
  0
ARC
  5
66
  8
0
  6
CONTINUOUS
 62
     7
 10
36.7837368702
 20
400.5377686847
 30
0.0
 40
0.5000000951301576
 50
45.0
 51
225.0
  0
LINE
  5
67
  8
0
  6
CONTINUOUS
 62
     7
 10
36.4301836023
 20
400.1842131085
 30
0.0
 11
36.4301836023
 21
386.5984295673
 31
0.0
  0
ARC
  5
68
  8
0
  6
CONTINUOUS
 62
     7
 10
36.7837368702
 20
386.2448756005
 30
0.0
 40
0.5000000951301175
 50
135.0
 51
315.0
  0
LINE
  5
69
  8
0
  6
CONTINUOUS
 62
     7
 10
208.8301892297
 20
528.0913178987
 30
0.0
 11
208.8301892297
 21
537.3913263149
 31
0.0
  0
LINE
  5
6A
  8
0
  6
CONTINUOUS
 62
     7
 10
208.8301892297
 20
528.0913178987
 30
0.0
 11
203.5372967737
 21
528.0913178987
 31
0.0
  0
ARC
  5
6B
  8
0
  6
CONTINUOUS
 62
     7
 10
203.1837368029
 20
527.737768752
 30
0.0
 40
0.4999999999999639
 50
45.0
 51
224.9999999999
  0
LINE
  5
6C
  8
0
  6
CONTINUOUS
 62
     7
 10
202.8301770704
 20
527.3842130966
 30
0.0
 11
202.8301770704
 21
525.7984315224
 31
0.0
  0
ARC
  5
6D
  8
0
  6
CONTINUOUS
 62
     7
 10
203.1837368029
 20
525.4448755332
 30
0.0
 40
0.5000000000000442
 50
135.0000000001
 51
315.0
  0
LINE
  5
6E
  8
0
  6
CONTINUOUS
 62
     7
 10
203.5372967737
 20
525.0913267202
 30
0.0
 11
208.8301892297
 21
525.0913267202
 31
0.0
  0
LINE
  5
6F
  8
0
  6
CONTINUOUS
 62
     7
 10
208.8301892297
 20
471.5984230108
 30
0.0
 11
208.8301892297
 21
525.0913267202
 31
0.0
  0
ARC
  5
70
  8
0
  6
CONTINUOUS
 62
     7
 10
209.1837368029
 20
471.2448755332
 30
0.0
 40
0.5000000000000442
 50
135.0
 51
315.0
  0
LINE
  5
71
  8
0
  6
CONTINUOUS
 62
     7
 10
210.1230735796
 20
470.8913182087
 30
0.0
 11
209.5372940319
 21
470.8913182087
 31
0.0
  0
ARC
  5
72
  8
0
  6
CONTINUOUS
 62
     7
 10
210.4766300217
 20
471.2448755332
 30
0.0
 40
0.5000000000000643
 50
225.0
 51
45.0
  0
LINE
  5
73
  8
0
  6
CONTINUOUS
 62
     7
 10
210.8301783817
 20
471.8913202352
 30
0.0
 11
210.8301783817
 21
471.5984230108
 31
0.0
  0
ARC
  5
74
  8
0
  6
CONTINUOUS
 62
     7
 10
211.8301834123
 20
471.8913221426
 30
0.0
 40
1.000000000000048
 50
45.0
 51
180.0
  0
LINE
  5
75
  8
0
  6
CONTINUOUS
 62
     7
 10
214.3301780241
 20
470.8055322237
 30
0.0
 11
212.5372852104
 21
472.5984250374
 31
0.0
  0
LINE
  5
76
  8
0
  6
CONTINUOUS
 62
     7
 10
214.3301780241
 20
459.8912661142
 30
0.0
 11
214.3301780241
 21
470.8055322237
 31
0.0
  0
LINE
  5
77
  8
0
  6
CONTINUOUS
 62
     7
 10
212.3301888721
 20
457.8912620611
 30
0.0
 11
214.3301780241
 21
459.8912661142
 31
0.0
  0
LINE
  5
78
  8
0
  6
CONTINUOUS
 62
     7
 10
209.5372940319
 20
457.8912620611
 30
0.0
 11
212.3301888721
 21
457.8912620611
 31
0.0
  0
ARC
  5
79
  8
0
  6
CONTINUOUS
 62
     7
 10
209.1837368029
 20
457.5377060525
 30
0.0
 40
0.5000000000000241
 50
45.0
 51
225.0
  0
LINE
  5
7A
  8
0
  6
CONTINUOUS
 62
     7
 10
208.8301892297
 20
401.5984301634
 30
0.0
 11
208.8301892297
 21
457.184157259
 31
0.0
  0
ARC
  5
7B
  8
0
  6
CONTINUOUS
 62
     7
 10
209.1837368029
 20
401.2448755332
 30
0.0
 40
0.5000000000000241
 50
135.0
 51
315.0
  0
LINE
  5
7C
  8
0
  6
CONTINUOUS
 62
     7
 10
210.1230735796
 20
400.8913253612
 30
0.0
 11
209.5372940319
 21
400.8913253612
 31
0.0
  0
ARC
  5
7D
  8
0
  6
CONTINUOUS
 62
     7
 10
210.4766300217
 20
401.2448755332
 30
0.0
 40
0.5000000000000241
 50
225.0
 51
45.0
  0
LINE
  5
7E
  8
0
  6
CONTINUOUS
 62
     7
 10
210.8301783817
 20
401.8913199372
 30
0.0
 11
210.8301783817
 21
401.5984301634
 31
0.0
  0
ARC
  5
7F
  8
0
  6
CONTINUOUS
 62
     7
 10
211.8301834123
 20
401.8913221426
 30
0.0
 40
1.000000000000008
 50
45.0
 51
180.0
  0
LINE
  5
80
  8
0
  6
CONTINUOUS
 62
     7
 10
214.3301780241
 20
400.8055393763
 30
0.0
 11
212.5372852104
 21
402.5984321899
 31
0.0
  0
LINE
  5
81
  8
0
  6
CONTINUOUS
 62
     7
 10
214.3301780241
 20
389.8912583656
 30
0.0
 11
214.3301780241
 21
400.8055393763
 31
0.0
  0
LINE
  5
82
  8
0
  6
CONTINUOUS
 62
     7
 10
212.3301888721
 20
387.8912617631
 30
0.0
 11
214.3301780241
 21
389.8912583656
 31
0.0
  0
LINE
  5
83
  8
0
  6
CONTINUOUS
 62
     7
 10
209.5372940319
 20
387.8912617631
 30
0.0
 11
212.3301888721
 21
387.8912617631
 31
0.0
  0
ARC
  5
84
  8
0
  6
CONTINUOUS
 62
     7
 10
209.1837368029
 20
387.5377060525
 30
0.0
 40
0.5000000000000442
 50
45.0
 51
225.0
  0
LINE
  5
85
  8
0
  6
CONTINUOUS
 62
     7
 10
208.8301892297
 20
345.091323293
 30
0.0
 11
208.8301892297
 21
387.1841495104
 31
0.0
  0
LINE
  5
86
  8
0
  6
CONTINUOUS
 62
     7
 10
208.8301892297
 20
345.091323293
 30
0.0
 11
203.5372967737
 21
345.091323293
 31
0.0
  0
ARC
  5
87
  8
0
  6
CONTINUOUS
 62
     7
 10
203.1837368029
 20
344.737768752
 30
0.0
 40
0.4999999999999639
 50
45.0
 51
225.0
  0
LINE
  5
88
  8
0
  6
CONTINUOUS
 62
     7
 10
202.8301770704
 20
344.3842147655
 30
0.0
 11
202.8301770704
 21
342.798429466
 31
0.0
  0
ARC
  5
89
  8
0
  6
CONTINUOUS
 62
     7
 10
203.1837368029
 20
342.4448755332
 30
0.0
 40
0.499999999999984
 50
135.0
 51
315.0
  0
LINE
  5
8A
  8
0
  6
CONTINUOUS
 62
     7
 10
203.5372967737
 20
342.0913209386
 30
0.0
 11
208.8301892297
 21
342.0913209386
 31
0.0
  0
LINE
  5
8B
  8
0
  6
CONTINUOUS
 62
     7
 10
208.8301892297
 20
331.5984280027
 30
0.0
 11
208.8301892297
 21
342.0913209386
 31
0.0
  0
ARC
  5
8C
  8
0
  6
CONTINUOUS
 62
     7
 10
209.1837368029
 20
331.2448755332
 30
0.0
 40
0.5000000000000241
 50
135.0
 51
315.0
  0
LINE
  5
8D
  8
0
  6
CONTINUOUS
 62
     7
 10
210.1230735796
 20
330.8913213379
 30
0.0
 11
209.5372940319
 21
330.8913213379
 31
0.0
  0
ARC
  5
8E
  8
0
  6
CONTINUOUS
 62
     7
 10
210.4766300217
 20
331.2448755332
 30
0.0
 40
0.5000000000000241
 50
225.0
 51
45.0
  0
LINE
  5
8F
  8
0
  6
CONTINUOUS
 62
     7
 10
210.8301783817
 20
331.8913215018
 30
0.0
 11
210.8301783817
 21
331.5984280027
 31
0.0
  0
ARC
  5
90
  8
0
  6
CONTINUOUS
 62
     7
 10
211.8301834123
 20
331.8913221426
 30
0.0
 40
1.000000000000048
 50
45.0
 51
180.0
  0
LINE
  5
91
  8
0
  6
CONTINUOUS
 62
     7
 10
214.3301780241
 20
330.8055353529
 30
0.0
 11
212.5372852104
 21
332.5984281666
 31
0.0
  0
LINE
  5
92
  8
0
  6
CONTINUOUS
 62
     7
 10
214.3301780241
 20
319.8912589989
 30
0.0
 11
214.3301780241
 21
330.8055353529
 31
0.0
  0
LINE
  5
93
  8
0
  6
CONTINUOUS
 62
     7
 10
212.3301888721
 20
317.8912596024
 30
0.0
 11
214.3301780241
 21
319.8912589989
 31
0.0
  0
LINE
  5
94
  8
0
  6
CONTINUOUS
 62
     7
 10
209.5372940319
 20
317.8912596024
 30
0.0
 11
212.3301888721
 21
317.8912596024
 31
0.0
  0
ARC
  5
95
  8
0
  6
CONTINUOUS
 62
     7
 10
209.1837368029
 20
317.5377060525
 30
0.0
 40
0.5000000000000442
 50
45.0
 51
225.0
  0
LINE
  5
96
  8
0
  6
CONTINUOUS
 62
     7
 10
208.8301892297
 20
307.3913221426
 30
0.0
 11
208.8301892297
 21
317.1841529376
 31
0.0
  0
LINE
  5
97
  8
0
  6
CONTINUOUS
 62
     7
 10
36.4301836023
 20
307.3913221426
 30
0.0
 11
208.8301892297
 21
307.3913221426
 31
0.0
  0
LINE
  5
98
  8
0
  6
CONTINUOUS
 62
     7
 10
32.4301834123
 20
311.3913223326
 30
0.0
 11
36.4301836023
 21
307.3913221426
 31
0.0
  0
LINE
  5
99
  8
0
  6
CONTINUOUS
 62
     7
 10
32.4301834123
 20
341.0913226373
 30
0.0
 11
32.4301834123
 21
311.3913223326
 31
0.0
  0
LINE
  5
9A
  8
0
  6
CONTINUOUS
 62
     7
 10
33.4301834598
 20
342.0913209386
 30
0.0
 11
32.4301834123
 21
341.0913226373
 31
0.0
  0
LINE
  5
9B
  8
0
  6
CONTINUOUS
 62
     7
 10
33.4301834598
 20
342.0913209386
 30
0.0
 11
43.7230768519
 21
342.0913209386
 31
0.0
  0
ARC
  5
9C
  8
0
  6
CONTINUOUS
 62
     7
 10
44.0766300217
 20
342.4448755332
 30
0.0
 40
0.500000000000004
 50
225.0
 51
45.0
  0
LINE
  5
9D
  8
0
  6
CONTINUOUS
 62
     7
 10
44.4301835166
 20
342.798429466
 30
0.0
 11
44.4301835166
 21
344.3842147655
 31
0.0
  0
ARC
  5
9E
  8
0
  6
CONTINUOUS
 62
     7
 10
44.0766300217
 20
344.737768752
 30
0.0
 40
0.5000000000000141
 50
315.0
 51
135.0
  0
LINE
  5
9F
  8
0
  6
CONTINUOUS
 62
     7
 10
43.7230768519
 20
345.091323293
 30
0.0
 11
33.4301834598
 21
345.091323293
 31
0.0
  0
LINE
  5
A0
  8
0
  6
CONTINUOUS
 62
     7
 10
32.4301834123
 20
346.0913215942
 30
0.0
 11
33.4301834598
 21
345.091323293
 31
0.0
  0
LINE
  5
A1
  8
0
  6
CONTINUOUS
 62
     7
 10
32.4301834123
 20
524.0913246937
 30
0.0
 11
32.4301834123
 21
346.0913215942
 31
0.0
  0
LINE
  5
A2
  8
0
  6
CONTINUOUS
 62
     7
 10
33.4301834598
 20
525.0913267202
 30
0.0
 11
32.4301834123
 21
524.0913246937
 31
0.0
  0
LINE
  5
A3
  8
0
  6
CONTINUOUS
 62
     7
 10
33.4301834598
 20
525.0913267202
 30
0.0
 11
43.7230768519
 21
525.0913267202
 31
0.0
  0
ARC
  5
A4
  8
0
  6
CONTINUOUS
 62
     7
 10
44.0766300217
 20
525.4448755332
 30
0.0
 40
0.5000000000000291
 50
225.0
 51
45.0000000001
  0
LINE
  5
A5
  8
0
  6
CONTINUOUS
 62
     7
 10
44.4301835166
 20
525.7984315224
 30
0.0
 11
44.4301835166
 21
527.3842130966
 31
0.0
  0
ARC
  5
A6
  8
0
  6
CONTINUOUS
 62
     7
 10
44.0766300217
 20
527.737768752
 30
0.0
 40
0.5000000000000342
 50
314.9999999999
 51
135.0
  0
LINE
  5
A7
  8
0
  6
CONTINUOUS
 62
     7
 10
43.7230768519
 20
528.0913178987
 30
0.0
 11
33.4301834598
 21
528.0913178987
 31
0.0
  0
LINE
  5
A8
  8
0
  6
CONTINUOUS
 62
     7
 10
32.4301834123
 20
529.0913199253
 30
0.0
 11
33.4301834598
 21
528.0913178987
 31
0.0
  0
LINE
  5
A9
  8
0
  6
CONTINUOUS
 62
     7
 10
32.4301834123
 20
533.3913182087
 30
0.0
 11
32.4301834123
 21
529.0913199253
 31
0.0
  0
LINE
  5
AA
  8
0
  6
CONTINUOUS
 62
     7
 10
36.4301836023
 20
537.3913263149
 30
0.0
 11
32.4301834123
 21
533.3913182087
 31
0.0
  0
LINE
  5
AB
  8
0
  6
CONTINUOUS
 62
     7
 10
208.8301892297
 20
537.3913263149
 30
0.0
 11
36.4301836023
 21
537.3913263149
 31
0.0
  0
LINE
  5
AC
  8
0
  6
CONTINUOUS
 62
     7
 10
52.0301836448
 20
525.3913168974
 30
0.0
 11
55.2301837968
 21
525.3913168974
 31
0.0
  0
LINE
  5
AD
  8
0
  6
CONTINUOUS
 62
     7
 10
52.0301836448
 20
521.1913203068
 30
0.0
 11
52.0301836448
 21
525.3913168974
 31
0.0
  0
LINE
  5
AE
  8
0
  6
CONTINUOUS
 62
     7
 10
52.0301836448
 20
521.1913203068
 30
0.0
 11
55.2301837968
 21
521.1913203068
 31
0.0
  0
LINE
  5
AF
  8
0
  6
CONTINUOUS
 62
     7
 10
55.2301837968
 20
521.1913203068
 30
0.0
 11
55.2301837968
 21
525.3913168974
 31
0.0
  0
LINE
  5
B0
  8
0
  6
CONTINUOUS
 62
     7
 10
92.0301827507
 20
525.3913168974
 30
0.0
 11
95.2301810401
 21
525.3913168974
 31
0.0
  0
LINE
  5
B1
  8
0
  6
CONTINUOUS
 62
     7
 10
92.0301827507
 20
521.1913203068
 30
0.0
 11
92.0301827507
 21
525.3913168974
 31
0.0
  0
LINE
  5
B2
  8
0
  6
CONTINUOUS
 62
     7
 10
92.0301827507
 20
521.1913203068
 30
0.0
 11
95.2301810401
 21
521.1913203068
 31
0.0
  0
LINE
  5
B3
  8
0
  6
CONTINUOUS
 62
     7
 10
95.2301810401
 20
521.1913203068
 30
0.0
 11
95.2301810401
 21
525.3913168974
 31
0.0
  0
LINE
  5
B4
  8
0
  6
CONTINUOUS
 62
     7
 10
132.0301855819
 20
525.3913168974
 30
0.0
 11
135.230180146
 21
525.3913168974
 31
0.0
  0
LINE
  5
B5
  8
0
  6
CONTINUOUS
 62
     7
 10
132.0301855819
 20
521.1913203068
 30
0.0
 11
132.0301855819
 21
525.3913168974
 31
0.0
  0
LINE
  5
B6
  8
0
  6
CONTINUOUS
 62
     7
 10
132.0301855819
 20
521.1913203068
 30
0.0
 11
135.230180146
 21
521.1913203068
 31
0.0
  0
LINE
  5
B7
  8
0
  6
CONTINUOUS
 62
     7
 10
135.230180146
 20
521.1913203068
 30
0.0
 11
135.230180146
 21
525.3913168974
 31
0.0
  0
LINE
  5
B8
  8
0
  6
CONTINUOUS
 62
     7
 10
172.0301772373
 20
525.3913168974
 30
0.0
 11
175.2301867025
 21
525.3913168974
 31
0.0
  0
LINE
  5
B9
  8
0
  6
CONTINUOUS
 62
     7
 10
172.0301772373
 20
521.1913203068
 30
0.0
 11
172.0301772373
 21
525.3913168974
 31
0.0
  0
LINE
  5
BA
  8
0
  6
CONTINUOUS
 62
     7
 10
172.0301772373
 20
521.1913203068
 30
0.0
 11
175.2301867025
 21
521.1913203068
 31
0.0
  0
LINE
  5
BB
  8
0
  6
CONTINUOUS
 62
     7
 10
175.2301867025
 20
521.1913203068
 30
0.0
 11
175.2301867025
 21
525.3913168974
 31
0.0
  0
CIRCLE
  5
BC
  8
0
  6
CONTINUOUS
 62
     7
 10
163.6301834123
 20
526.3913221426
 30
0.0
 40
1.5
  0
CIRCLE
  5
BD
  8
0
  6
CONTINUOUS
 62
     7
 10
83.6301834123
 20
526.3913221426
 30
0.0
 40
1.5
  0
LINE
  5
BE
  8
0
  6
CONTINUOUS
 62
     7
 10
385.374961366
 20
526.5535670527
 30
0.0
 11
388.57495593
 21
526.5535670527
 31
0.0
  0
LINE
  5
BF
  8
0
  6
CONTINUOUS
 62
     7
 10
385.374961366
 20
522.353570462
 30
0.0
 11
385.374961366
 21
526.5535670527
 31
0.0
  0
LINE
  5
C0
  8
0
  6
CONTINUOUS
 62
     7
 10
385.374961366
 20
522.353570462
 30
0.0
 11
388.57495593
 21
522.353570462
 31
0.0
  0
LINE
  5
C1
  8
0
  6
CONTINUOUS
 62
     7
 10
388.57495593
 20
522.353570462
 30
0.0
 11
388.57495593
 21
526.5535670527
 31
0.0
  0
LINE
  5
C2
  8
0
  6
CONTINUOUS
 62
     7
 10
345.3749548095
 20
526.5535670527
 30
0.0
 11
348.5749568241
 21
526.5535670527
 31
0.0
  0
LINE
  5
C3
  8
0
  6
CONTINUOUS
 62
     7
 10
345.3749548095
 20
522.353570462
 30
0.0
 11
345.3749548095
 21
526.5535670527
 31
0.0
  0
LINE
  5
C4
  8
0
  6
CONTINUOUS
 62
     7
 10
345.3749548095
 20
522.353570462
 30
0.0
 11
348.5749568241
 21
522.353570462
 31
0.0
  0
LINE
  5
C5
  8
0
  6
CONTINUOUS
 62
     7
 10
348.5749568241
 20
522.353570462
 30
0.0
 11
348.5749568241
 21
526.5535670527
 31
0.0
  0
LINE
  5
C6
  8
0
  6
CONTINUOUS
 62
     7
 10
305.3749557035
 20
526.5535670527
 30
0.0
 11
308.5749577182
 21
526.5535670527
 31
0.0
  0
LINE
  5
C7
  8
0
  6
CONTINUOUS
 62
     7
 10
305.3749557035
 20
522.353570462
 30
0.0
 11
305.3749557035
 21
526.5535670527
 31
0.0
  0
LINE
  5
C8
  8
0
  6
CONTINUOUS
 62
     7
 10
305.3749557035
 20
522.353570462
 30
0.0
 11
308.5749577182
 21
522.353570462
 31
0.0
  0
LINE
  5
C9
  8
0
  6
CONTINUOUS
 62
     7
 10
308.5749577182
 20
522.353570462
 30
0.0
 11
308.5749577182
 21
526.5535670527
 31
0.0
  0
LINE
  5
CA
  8
0
  6
CONTINUOUS
 62
     7
 10
265.3749565976
 20
526.5535670527
 30
0.0
 11
268.5749586122
 21
526.5535670527
 31
0.0
  0
LINE
  5
CB
  8
0
  6
CONTINUOUS
 62
     7
 10
265.3749565976
 20
522.353570462
 30
0.0
 11
265.3749565976
 21
526.5535670527
 31
0.0
  0
LINE
  5
CC
  8
0
  6
CONTINUOUS
 62
     7
 10
265.3749565976
 20
522.353570462
 30
0.0
 11
268.5749586122
 21
522.353570462
 31
0.0
  0
LINE
  5
CD
  8
0
  6
CONTINUOUS
 62
     7
 10
268.5749586122
 20
522.353570462
 30
0.0
 11
268.5749586122
 21
526.5535670527
 31
0.0
  0
LINE
  5
CE
  8
0
  6
CONTINUOUS
 62
     7
 10
230.4820636669
 20
457.0535677679
 30
0.0
 11
231.0678497339
 21
457.0535677679
 31
0.0
  0
ARC
  5
CF
  8
0
  6
CONTINUOUS
 62
     7
 10
231.4214033543
 20
457.4071257557
 30
0.0
 40
0.5000000951301224
 50
225.0
 51
45.0
  0
LINE
  5
D0
  8
0
  6
CONTINUOUS
 62
     7
 10
231.7749568643
 20
457.76067257
 30
0.0
 11
231.7749568643
 21
471.3464635618
 31
0.0
  0
ARC
  5
D1
  8
0
  6
CONTINUOUS
 62
     7
 10
231.4214033543
 20
471.70001884
 30
0.0
 40
0.5000000951301626
 50
315.0
 51
135.0
  0
LINE
  5
D2
  8
0
  6
CONTINUOUS
 62
     7
 10
231.0678497339
 20
472.053568364
 30
0.0
 11
230.4820636669
 21
472.053568364
 31
0.0
  0
ARC
  5
D3
  8
0
  6
CONTINUOUS
 62
     7
 10
230.12851027
 20
471.70001884
 30
0.0
 40
0.5000000951301827
 50
45.0
 51
225.0
  0
LINE
  5
D4
  8
0
  6
CONTINUOUS
 62
     7
 10
229.7749570022
 20
471.3464635618
 30
0.0
 11
229.7749570022
 21
457.76067257
 31
0.0
  0
ARC
  5
D5
  8
0
  6
CONTINUOUS
 62
     7
 10
230.12851027
 20
457.4071257557
 30
0.0
 40
0.5000000951301425
 50
135.0
 51
315.0
  0
LINE
  5
D6
  8
0
  6
CONTINUOUS
 62
     7
 10
230.4820636669
 20
317.0535727598
 30
0.0
 11
231.0678497339
 21
317.0535727598
 31
0.0
  0
ARC
  5
D7
  8
0
  6
CONTINUOUS
 62
     7
 10
231.4214033543
 20
317.4071257557
 30
0.0
 40
0.5000000951301224
 50
225.0
 51
45.0
  0
LINE
  5
D8
  8
0
  6
CONTINUOUS
 62
     7
 10
231.7749568643
 20
317.7606794246
 30
0.0
 11
231.7749568643
 21
331.3464648284
 31
0.0
  0
ARC
  5
D9
  8
0
  6
CONTINUOUS
 62
     7
 10
231.4214033543
 20
331.70001884
 30
0.0
 40
0.5000000951301626
 50
315.0
 51
135.0
  0
LINE
  5
DA
  8
0
  6
CONTINUOUS
 62
     7
 10
231.0678497339
 20
332.0535714932
 30
0.0
 11
230.4820636669
 21
332.0535714932
 31
0.0
  0
ARC
  5
DB
  8
0
  6
CONTINUOUS
 62
     7
 10
230.12851027
 20
331.70001884
 30
0.0
 40
0.5000000951301827
 50
45.0
 51
225.0
  0
LINE
  5
DC
  8
0
  6
CONTINUOUS
 62
     7
 10
229.7749570022
 20
331.3464648284
 30
0.0
 11
229.7749570022
 21
317.7606794246
 31
0.0
  0
ARC
  5
DD
  8
0
  6
CONTINUOUS
 62
     7
 10
230.12851027
 20
317.4071257557
 30
0.0
 40
0.5000000951301425
 50
135.0
 51
315.0
  0
LINE
  5
DE
  8
0
  6
CONTINUOUS
 62
     7
 10
230.4820636669
 20
387.0535749205
 30
0.0
 11
231.0678497339
 21
387.0535749205
 31
0.0
  0
ARC
  5
DF
  8
0
  6
CONTINUOUS
 62
     7
 10
231.4214033543
 20
387.4071257557
 30
0.0
 40
0.5000000951301224
 50
225.0
 51
45.0
  0
LINE
  5
E0
  8
0
  6
CONTINUOUS
 62
     7
 10
231.7749568643
 20
387.7606797226
 30
0.0
 11
231.7749568643
 21
401.3464632638
 31
0.0
  0
ARC
  5
E1
  8
0
  6
CONTINUOUS
 62
     7
 10
231.4214033543
 20
401.70001884
 30
0.0
 40
0.5000000951301626
 50
315.0
 51
135.0
  0
LINE
  5
E2
  8
0
  6
CONTINUOUS
 62
     7
 10
231.0678497339
 20
402.0535755165
 30
0.0
 11
230.4820636669
 21
402.0535755165
 31
0.0
  0
ARC
  5
E3
  8
0
  6
CONTINUOUS
 62
     7
 10
230.12851027
 20
401.70001884
 30
0.0
 40
0.5000000951301425
 50
45.0
 51
225.0
  0
LINE
  5
E4
  8
0
  6
CONTINUOUS
 62
     7
 10
229.7749570022
 20
401.3464632638
 30
0.0
 11
229.7749570022
 21
387.7606797226
 31
0.0
  0
ARC
  5
E5
  8
0
  6
CONTINUOUS
 62
     7
 10
230.12851027
 20
387.4071257557
 30
0.0
 40
0.5000000951301425
 50
135.0
 51
315.0
  0
LINE
  5
E6
  8
0
  6
CONTINUOUS
 62
     7
 10
402.1749626296
 20
529.253568054
 30
0.0
 11
402.1749626296
 21
538.5535764702
 31
0.0
  0
LINE
  5
E7
  8
0
  6
CONTINUOUS
 62
     7
 10
402.1749626296
 20
529.253568054
 30
0.0
 11
396.8820701735
 21
529.253568054
 31
0.0
  0
ARC
  5
E8
  8
0
  6
CONTINUOUS
 62
     7
 10
396.5285102028
 20
528.9000189073
 30
0.0
 40
0.500000000000004
 50
45.0
 51
224.9999999999
  0
LINE
  5
E9
  8
0
  6
CONTINUOUS
 62
     7
 10
396.1749504702
 20
528.5464632519
 30
0.0
 11
396.1749504702
 21
526.9606816776
 31
0.0
  0
ARC
  5
EA
  8
0
  6
CONTINUOUS
 62
     7
 10
396.5285102028
 20
526.6071256885
 30
0.0
 40
0.5000000000000442
 50
135.0000000001
 51
315.0
  0
LINE
  5
EB
  8
0
  6
CONTINUOUS
 62
     7
 10
396.8820701735
 20
526.2535768755
 30
0.0
 11
402.1749626296
 21
526.2535768755
 31
0.0
  0
LINE
  5
EC
  8
0
  6
CONTINUOUS
 62
     7
 10
402.1749626296
 20
472.7606731661
 30
0.0
 11
402.1749626296
 21
526.2535768755
 31
0.0
  0
ARC
  5
ED
  8
0
  6
CONTINUOUS
 62
     7
 10
402.5285102028
 20
472.4071256885
 30
0.0
 40
0.500000000000004
 50
135.0
 51
315.0
  0
LINE
  5
EE
  8
0
  6
CONTINUOUS
 62
     7
 10
403.4678469794
 20
472.053568364
 30
0.0
 11
402.8820674317
 21
472.053568364
 31
0.0
  0
ARC
  5
EF
  8
0
  6
CONTINUOUS
 62
     7
 10
403.8214034216
 20
472.4071256885
 30
0.0
 40
0.5000000000000844
 50
225.0
 51
45.0
  0
LINE
  5
F0
  8
0
  6
CONTINUOUS
 62
     7
 10
404.1749517815
 20
473.0535703905
 30
0.0
 11
404.1749517815
 21
472.7606731661
 31
0.0
  0
ARC
  5
F1
  8
0
  6
CONTINUOUS
 62
     7
 10
405.1749568122
 20
473.0535722979
 30
0.0
 40
1.000000000000008
 50
45.0
 51
180.0
  0
LINE
  5
F2
  8
0
  6
CONTINUOUS
 62
     7
 10
407.6749514239
 20
471.967782379
 30
0.0
 11
405.8820586102
 21
473.7606751926
 31
0.0
  0
LINE
  5
F3
  8
0
  6
CONTINUOUS
 62
     7
 10
407.6749514239
 20
461.0535162695
 30
0.0
 11
407.6749514239
 21
471.967782379
 31
0.0
  0
LINE
  5
F4
  8
0
  6
CONTINUOUS
 62
     7
 10
405.674962272
 20
459.0535122164
 30
0.0
 11
407.6749514239
 21
461.0535162695
 31
0.0
  0
LINE
  5
F5
  8
0
  6
CONTINUOUS
 62
     7
 10
402.8820674317
 20
459.0535122164
 30
0.0
 11
405.674962272
 21
459.0535122164
 31
0.0
  0
ARC
  5
F6
  8
0
  6
CONTINUOUS
 62
     7
 10
402.5285102028
 20
458.6999562078
 30
0.0
 40
0.5000000000000442
 50
45.0
 51
225.0
  0
LINE
  5
F7
  8
0
  6
CONTINUOUS
 62
     7
 10
402.1749626296
 20
402.7606803186
 30
0.0
 11
402.1749626296
 21
458.3464074142
 31
0.0
  0
ARC
  5
F8
  8
0
  6
CONTINUOUS
 62
     7
 10
402.5285102028
 20
402.4071256885
 30
0.0
 40
0.500000000000004
 50
135.0
 51
315.0
  0
LINE
  5
F9
  8
0
  6
CONTINUOUS
 62
     7
 10
403.4678469794
 20
402.0535755165
 30
0.0
 11
402.8820674317
 21
402.0535755165
 31
0.0
  0
ARC
  5
FA
  8
0
  6
CONTINUOUS
 62
     7
 10
403.8214034216
 20
402.4071256885
 30
0.0
 40
0.5000000000000442
 50
225.0
 51
45.0
  0
LINE
  5
FB
  8
0
  6
CONTINUOUS
 62
     7
 10
404.1749517815
 20
403.0535700925
 30
0.0
 11
404.1749517815
 21
402.7606803186
 31
0.0
  0
ARC
  5
FC
  8
0
  6
CONTINUOUS
 62
     7
 10
405.1749568122
 20
403.0535722979
 30
0.0
 40
1.0
 50
45.0
 51
180.0
  0
LINE
  5
FD
  8
0
  6
CONTINUOUS
 62
     7
 10
407.6749514239
 20
401.9677895315
 30
0.0
 11
405.8820586102
 21
403.7606823452
 31
0.0
  0
LINE
  5
FE
  8
0
  6
CONTINUOUS
 62
     7
 10
407.6749514239
 20
391.0535085209
 30
0.0
 11
407.6749514239
 21
401.9677895315
 31
0.0
  0
LINE
  5
FF
  8
0
  6
CONTINUOUS
 62
     7
 10
405.674962272
 20
389.0535119184
 30
0.0
 11
407.6749514239
 21
391.0535085209
 31
0.0
  0
LINE
  5
100
  8
0
  6
CONTINUOUS
 62
     7
 10
402.8820674317
 20
389.0535119184
 30
0.0
 11
405.674962272
 21
389.0535119184
 31
0.0
  0
ARC
  5
101
  8
0
  6
CONTINUOUS
 62
     7
 10
402.5285102028
 20
388.6999562078
 30
0.0
 40
0.500000000000004
 50
45.0
 51
225.0
  0
LINE
  5
102
  8
0
  6
CONTINUOUS
 62
     7
 10
402.1749626296
 20
346.2535734482
 30
0.0
 11
402.1749626296
 21
388.3463996656
 31
0.0
  0
LINE
  5
103
  8
0
  6
CONTINUOUS
 62
     7
 10
402.1749626296
 20
346.2535734482
 30
0.0
 11
396.8820701735
 21
346.2535734482
 31
0.0
  0
ARC
  5
104
  8
0
  6
CONTINUOUS
 62
     7
 10
396.5285102028
 20
345.9000189073
 30
0.0
 40
0.4999999999999237
 50
45.0
 51
225.0
  0
LINE
  5
105
  8
0
  6
CONTINUOUS
 62
     7
 10
396.1749504702
 20
345.5464649208
 30
0.0
 11
396.1749504702
 21
343.9606796213
 31
0.0
  0
ARC
  5
106
  8
0
  6
CONTINUOUS
 62
     7
 10
396.5285102028
 20
343.6071256885
 30
0.0
 40
0.500000000000004
 50
135.0
 51
315.0
  0
LINE
  5
107
  8
0
  6
CONTINUOUS
 62
     7
 10
396.8820701735
 20
343.2535710938
 30
0.0
 11
402.1749626296
 21
343.2535710938
 31
0.0
  0
LINE
  5
108
  8
0
  6
CONTINUOUS
 62
     7
 10
402.1749626296
 20
332.760678158
 30
0.0
 11
402.1749626296
 21
343.2535710938
 31
0.0
  0
ARC
  5
109
  8
0
  6
CONTINUOUS
 62
     7
 10
402.5285102028
 20
332.4071256885
 30
0.0
 40
0.5000000000000442
 50
135.0
 51
315.0
  0
LINE
  5
10A
  8
0
  6
CONTINUOUS
 62
     7
 10
403.4678469794
 20
332.0535714932
 30
0.0
 11
402.8820674317
 21
332.0535714932
 31
0.0
  0
ARC
  5
10B
  8
0
  6
CONTINUOUS
 62
     7
 10
403.8214034216
 20
332.4071256885
 30
0.0
 40
0.5000000000000442
 50
225.0
 51
45.0
  0
LINE
  5
10C
  8
0
  6
CONTINUOUS
 62
     7
 10
404.1749517815
 20
333.0535716571
 30
0.0
 11
404.1749517815
 21
332.760678158
 31
0.0
  0
ARC
  5
10D
  8
0
  6
CONTINUOUS
 62
     7
 10
405.1749568122
 20
333.0535722979
 30
0.0
 40
1.000000000000008
 50
45.0
 51
180.0
  0
LINE
  5
10E
  8
0
  6
CONTINUOUS
 62
     7
 10
407.6749514239
 20
331.9677855082
 30
0.0
 11
405.8820586102
 21
333.7606783219
 31
0.0
  0
LINE
  5
10F
  8
0
  6
CONTINUOUS
 62
     7
 10
407.6749514239
 20
321.0535091542
 30
0.0
 11
407.6749514239
 21
331.9677855082
 31
0.0
  0
LINE
  5
110
  8
0
  6
CONTINUOUS
 62
     7
 10
405.674962272
 20
319.0535097577
 30
0.0
 11
407.6749514239
 21
321.0535091542
 31
0.0
  0
LINE
  5
111
  8
0
  6
CONTINUOUS
 62
     7
 10
402.8820674317
 20
319.0535097577
 30
0.0
 11
405.674962272
 21
319.0535097577
 31
0.0
  0
ARC
  5
112
  8
0
  6
CONTINUOUS
 62
     7
 10
402.5285102028
 20
318.6999562078
 30
0.0
 40
0.500000000000004
 50
45.0
 51
225.0
  0
LINE
  5
113
  8
0
  6
CONTINUOUS
 62
     7
 10
402.1749626296
 20
308.5535722979
 30
0.0
 11
402.1749626296
 21
318.3464030929
 31
0.0
  0
LINE
  5
114
  8
0
  6
CONTINUOUS
 62
     7
 10
229.7749570022
 20
308.5535722979
 30
0.0
 11
402.1749626296
 21
308.5535722979
 31
0.0
  0
LINE
  5
115
  8
0
  6
CONTINUOUS
 62
     7
 10
225.7749568122
 20
312.5535724879
 30
0.0
 11
229.7749570022
 21
308.5535722979
 31
0.0
  0
LINE
  5
116
  8
0
  6
CONTINUOUS
 62
     7
 10
225.7749568122
 20
342.2535727926
 30
0.0
 11
225.7749568122
 21
312.5535724879
 31
0.0
  0
LINE
  5
117
  8
0
  6
CONTINUOUS
 62
     7
 10
226.7749568597
 20
343.2535710938
 30
0.0
 11
225.7749568122
 21
342.2535727926
 31
0.0
  0
LINE
  5
118
  8
0
  6
CONTINUOUS
 62
     7
 10
226.7749568597
 20
343.2535710938
 30
0.0
 11
237.0678502517
 21
343.2535710938
 31
0.0
  0
ARC
  5
119
  8
0
  6
CONTINUOUS
 62
     7
 10
237.4214034216
 20
343.6071256885
 30
0.0
 40
0.5000000000000241
 50
225.0
 51
45.0
  0
LINE
  5
11A
  8
0
  6
CONTINUOUS
 62
     7
 10
237.7749569165
 20
343.9606796213
 30
0.0
 11
237.7749569165
 21
345.5464649208
 31
0.0
  0
ARC
  5
11B
  8
0
  6
CONTINUOUS
 62
     7
 10
237.4214034216
 20
345.9000189073
 30
0.0
 40
0.500000000000004
 50
315.0
 51
135.0
  0
LINE
  5
11C
  8
0
  6
CONTINUOUS
 62
     7
 10
237.0678502517
 20
346.2535734482
 30
0.0
 11
226.7749568597
 21
346.2535734482
 31
0.0
  0
LINE
  5
11D
  8
0
  6
CONTINUOUS
 62
     7
 10
225.7749568122
 20
347.2535717495
 30
0.0
 11
226.7749568597
 21
346.2535734482
 31
0.0
  0
LINE
  5
11E
  8
0
  6
CONTINUOUS
 62
     7
 10
225.7749568122
 20
525.2535748489
 30
0.0
 11
225.7749568122
 21
347.2535717495
 31
0.0
  0
LINE
  5
11F
  8
0
  6
CONTINUOUS
 62
     7
 10
226.7749568597
 20
526.2535768755
 30
0.0
 11
225.7749568122
 21
525.2535748489
 31
0.0
  0
LINE
  5
120
  8
0
  6
CONTINUOUS
 62
     7
 10
226.7749568597
 20
526.2535768755
 30
0.0
 11
237.0678502517
 21
526.2535768755
 31
0.0
  0
ARC
  5
121
  8
0
  6
CONTINUOUS
 62
     7
 10
237.4214034216
 20
526.6071256885
 30
0.0
 40
0.5000000000000241
 50
225.0
 51
45.0000000001
  0
LINE
  5
122
  8
0
  6
CONTINUOUS
 62
     7
 10
237.7749569165
 20
526.9606816776
 30
0.0
 11
237.7749569165
 21
528.5464632519
 31
0.0
  0
ARC
  5
123
  8
0
  6
CONTINUOUS
 62
     7
 10
237.4214034216
 20
528.9000189073
 30
0.0
 40
0.5000000000000241
 50
314.9999999999
 51
135.0
  0
LINE
  5
124
  8
0
  6
CONTINUOUS
 62
     7
 10
237.0678502517
 20
529.253568054
 30
0.0
 11
226.7749568597
 21
529.253568054
 31
0.0
  0
LINE
  5
125
  8
0
  6
CONTINUOUS
 62
     7
 10
225.7749568122
 20
530.2535700806
 30
0.0
 11
226.7749568597
 21
529.253568054
 31
0.0
  0
LINE
  5
126
  8
0
  6
CONTINUOUS
 62
     7
 10
225.7749568122
 20
534.553568364
 30
0.0
 11
225.7749568122
 21
530.2535700806
 31
0.0
  0
LINE
  5
127
  8
0
  6
CONTINUOUS
 62
     7
 10
229.7749570022
 20
538.5535764702
 30
0.0
 11
225.7749568122
 21
534.553568364
 31
0.0
  0
LINE
  5
128
  8
0
  6
CONTINUOUS
 62
     7
 10
402.1749626296
 20
538.5535764702
 30
0.0
 11
229.7749570022
 21
538.5535764702
 31
0.0
  0
LINE
  5
129
  8
0
  6
CONTINUOUS
 62
     7
 10
245.3749570446
 20
526.5535670527
 30
0.0
 11
248.5749571966
 21
526.5535670527
 31
0.0
  0
LINE
  5
12A
  8
0
  6
CONTINUOUS
 62
     7
 10
245.3749570446
 20
522.353570462
 30
0.0
 11
245.3749570446
 21
526.5535670527
 31
0.0
  0
LINE
  5
12B
  8
0
  6
CONTINUOUS
 62
     7
 10
245.3749570446
 20
522.353570462
 30
0.0
 11
248.5749571966
 21
522.353570462
 31
0.0
  0
LINE
  5
12C
  8
0
  6
CONTINUOUS
 62
     7
 10
248.5749571966
 20
522.353570462
 30
0.0
 11
248.5749571966
 21
526.5535670527
 31
0.0
  0
LINE
  5
12D
  8
0
  6
CONTINUOUS
 62
     7
 10
285.3749561506
 20
526.5535670527
 30
0.0
 11
288.5749544399
 21
526.5535670527
 31
0.0
  0
LINE
  5
12E
  8
0
  6
CONTINUOUS
 62
     7
 10
285.3749561506
 20
522.353570462
 30
0.0
 11
285.3749561506
 21
526.5535670527
 31
0.0
  0
LINE
  5
12F
  8
0
  6
CONTINUOUS
 62
     7
 10
285.3749561506
 20
522.353570462
 30
0.0
 11
288.5749544399
 21
522.353570462
 31
0.0
  0
LINE
  5
130
  8
0
  6
CONTINUOUS
 62
     7
 10
288.5749544399
 20
522.353570462
 30
0.0
 11
288.5749544399
 21
526.5535670527
 31
0.0
  0
LINE
  5
131
  8
0
  6
CONTINUOUS
 62
     7
 10
325.3749589818
 20
526.5535670527
 30
0.0
 11
328.5749535458
 21
526.5535670527
 31
0.0
  0
LINE
  5
132
  8
0
  6
CONTINUOUS
 62
     7
 10
325.3749589818
 20
522.353570462
 30
0.0
 11
325.3749589818
 21
526.5535670527
 31
0.0
  0
LINE
  5
133
  8
0
  6
CONTINUOUS
 62
     7
 10
325.3749589818
 20
522.353570462
 30
0.0
 11
328.5749535458
 21
522.353570462
 31
0.0
  0
LINE
  5
134
  8
0
  6
CONTINUOUS
 62
     7
 10
328.5749535458
 20
522.353570462
 30
0.0
 11
328.5749535458
 21
526.5535670527
 31
0.0
  0
LINE
  5
135
  8
0
  6
CONTINUOUS
 62
     7
 10
365.3749506371
 20
526.5535670527
 30
0.0
 11
368.5749601024
 21
526.5535670527
 31
0.0
  0
LINE
  5
136
  8
0
  6
CONTINUOUS
 62
     7
 10
365.3749506371
 20
522.353570462
 30
0.0
 11
365.3749506371
 21
526.5535670527
 31
0.0
  0
LINE
  5
137
  8
0
  6
CONTINUOUS
 62
     7
 10
365.3749506371
 20
522.353570462
 30
0.0
 11
368.5749601024
 21
522.353570462
 31
0.0
  0
LINE
  5
138
  8
0
  6
CONTINUOUS
 62
     7
 10
368.5749601024
 20
522.353570462
 30
0.0
 11
368.5749601024
 21
526.5535670527
 31
0.0
  0
CIRCLE
  5
139
  8
0
  6
CONTINUOUS
 62
     7
 10
356.9749568122
 20
527.5535722979
 30
0.0
 40
1.5
  0
CIRCLE
  5
13A
  8
0
  6
CONTINUOUS
 62
     7
 10
276.9749568122
 20
527.5535722979
 30
0.0
 40
1.5
  0
DIMENSION
  5
13B
  8
0
  6
CONTINUOUS
 62
     7
  2
*D1
 10
417.6749568122
 20
538.5535722979
 30
0.0
 11
417.6749568122
 21
423.5535722979
 31
0.0
 70
   160
  3
SLDDIMSTYLE0
 13
402.1749568122
 23
308.5535722979
 33
0.0
 14
402.1749568122
 24
538.5535722979
 34
0.0
 50
90.0
  0
CIRCLE
  5
169
  8
0
  6
CONTINUOUS
 62
     7
 10
465.8794148147
 20
462.1028144927
 30
0.0
 40
1.750000000000057
  0
CIRCLE
  5
16A
  8
0
  6
CONTINUOUS
 62
     7
 10
627.8794148147
 20
462.1028144927
 30
0.0
 40
1.750000000000057
  0
CIRCLE
  5
16B
  8
0
  6
CONTINUOUS
 62
     7
 10
627.8794148147
 20
300.1028144927
 30
0.0
 40
1.750000000000114
  0
CIRCLE
  5
16C
  8
0
  6
CONTINUOUS
 62
     7
 10
465.8794148147
 20
300.1028144927
 30
0.0
 40
1.75
  0
LINE
  5
16D
  8
0
  6
CONTINUOUS
 62
     7
 10
632.0794148147
 20
466.3028144927
 30
0.0
 11
461.6794148147
 21
466.3028144927
 31
0.0
  0
LINE
  5
16E
  8
0
  6
CONTINUOUS
 62
     7
 10
632.0794148147
 20
295.9028144927
 30
0.0
 11
632.0794148147
 21
466.3028144927
 31
0.0
  0
LINE
  5
16F
  8
0
  6
CONTINUOUS
 62
     7
 10
461.6794148147
 20
295.9028144927
 30
0.0
 11
632.0794148147
 21
295.9028144927
 31
0.0
  0
LINE
  5
170
  8
0
  6
CONTINUOUS
 62
     7
 10
461.6794148147
 20
466.3028144927
 30
0.0
 11
461.6794148147
 21
295.9028144927
 31
0.0
  0
ENDSEC
  0
EOF
