  0
SECTION
  2
HEADER
  9
$ACADVER
  1
AC1009
  9
$DWGCODEPAGE
  3
ansi_936
  9
$INSBASE
 10
0.0
 20
0.0
 30
0.0
  9
$EXTMIN
 10
0.0
 20
0.0
 30
0.0
  9
$EXTMAX
 10
297.0
 20
210.0
 30
0.0
  9
$LIMMIN
 10
0.0
 20
0.0
  9
$LIMMAX
 10
297.0
 20
210.0
  9
$ORTHOMODE
 70
     0
  9
$REGENMODE
 70
     1
  9
$FILLMODE
 70
     1
  9
$QTEXTMODE
 70
     0
  9
$MIRRTEXT
 70
     1
  9
$DRAGMODE
 70
     2
  9
$LTSCALE
 40
1.0
  9
$OSMODE
 70
    37
  9
$ATTMODE
 70
     1
  9
$TEXTSIZE
 40
3.175
  9
$TRACEWID
 40
1.0
  9
$TEXTSTYLE
  7
STANDARD
  9
$CLAYER
  8
0
  9
$CELTYPE
  6
BYLAYER
  9
$CECOLOR
 62
   256
  9
$DIMSCALE
 40
1.0
  9
$DIMASZ
 40
3.302
  9
$DIMEXO
 40
1.27
  9
$DIMDLI
 40
3.75
  9
$DIMRND
 40
0.0
  9
$DIMDLE
 40
0.0
  9
$DIMEXE
 40
3.175
  9
$DIMTP
 40
0.0
  9
$DIMTM
 40
0.0
  9
$DIMTXT
 40
3.175
  9
$DIMCEN
 40
2.5
  9
$DIMTSZ
 40
0.0
  9
$DIMTOL
 70
     0
  9
$DIMLIM
 70
     0
  9
$DIMTIH
 70
     1
  9
$DIMTOH
 70
     1
  9
$DIMSE1
 70
     0
  9
$DIMSE2
 70
     0
  9
$DIMTAD
 70
     0
  9
$DIMZIN
 70
     0
  9
$DIMBLK
  1

  9
$DIMASO
 70
     1
  9
$DIMSHO
 70
     1
  9
$DIMPOST
  1

  9
$DIMAPOST
  1

  9
$DIMALT
 70
     0
  9
$DIMALTD
 70
     3
  9
$DIMALTF
 40
0.0393700787
  9
$DIMLFAC
 40
1.0
  9
$DIMTOFL
 70
     1
  9
$DIMTVP
 40
0.0
  9
$DIMTIX
 70
     0
  9
$DIMSOXD
 70
     0
  9
$DIMSAH
 70
     0
  9
$DIMBLK1
  1

  9
$DIMBLK2
  1

  9
$DIMSTYLE
  2
ISO-25
  9
$DIMCLRD
 70
     0
  9
$DIMCLRE
 70
     0
  9
$DIMCLRT
 70
     0
  9
$DIMTFAC
 40
1.0
  9
$DIMGAP
 40
1.524
  9
$LUNITS
 70
     2
  9
$LUPREC
 70
     2
  9
$SKETCHINC
 40
1.0
  9
$FILLETRAD
 40
10.0
  9
$AUNITS
 70
     0
  9
$AUPREC
 70
     2
  9
$MENU
  1
.
  9
$ELEVATION
 40
0.0
  9
$PELEVATION
 40
0.0
  9
$THICKNESS
 40
0.0
  9
$LIMCHECK
 70
     0
  9
$CHAMFERA
 40
10.0
  9
$CHAMFERB
 40
10.0
  9
$SKPOLY
 70
     0
  9
$TDCREATE
 40
2457000.704719143
  9
$TDUPDATE
 40
2457000.704719155
  9
$TDINDWG
 40
0.0000000116
  9
$TDUSRTIMER
 40
0.0000000116
  9
$USRTIMER
 70
     1
  9
$ANGBASE
 50
0.0
  9
$ANGDIR
 70
     0
  9
$PDMODE
 70
     0
  9
$PDSIZE
 40
-1.0
  9
$PLINEWID
 40
0.0
  9
$COORDS
 70
     1
  9
$SPLFRAME
 70
     0
  9
$SPLINETYPE
 70
     6
  9
$SPLINESEGS
 70
     8
  9
$ATTDIA
 70
     0
  9
$ATTREQ
 70
     1
  9
$HANDLING
 70
     1
  9
$HANDSEED
  5
223
  9
$SURFTAB1
 70
     6
  9
$SURFTAB2
 70
     6
  9
$SURFTYPE
 70
     6
  9
$SURFU
 70
     6
  9
$SURFV
 70
     6
  9
$UCSNAME
  2

  9
$UCSORG
 10
0.0
 20
0.0
 30
0.0
  9
$UCSXDIR
 10
1.0
 20
0.0
 30
0.0
  9
$UCSYDIR
 10
0.0
 20
1.0
 30
0.0
  9
$PUCSNAME
  2

  9
$PUCSORG
 10
0.0
 20
0.0
 30
0.0
  9
$PUCSXDIR
 10
1.0
 20
0.0
 30
0.0
  9
$PUCSYDIR
 10
0.0
 20
1.0
 30
0.0
  9
$USERI1
 70
     0
  9
$USERI2
 70
     0
  9
$USERI3
 70
     0
  9
$USERI4
 70
     0
  9
$USERI5
 70
     0
  9
$USERR1
 40
0.0
  9
$USERR2
 40
0.0
  9
$USERR3
 40
0.0
  9
$USERR4
 40
0.0
  9
$USERR5
 40
0.0
  9
$WORLDVIEW
 70
     1
  9
$SHADEDGE
 70
     3
  9
$SHADEDIF
 70
    70
  9
$TILEMODE
 70
     1
  9
$MAXACTVP
 70
    64
  9
$PLIMCHECK
 70
     0
  9
$PEXTMIN
 10
1.0000000000E+20
 20
1.0000000000E+20
 30
1.0000000000E+20
  9
$PEXTMAX
 10
-1.0000000000E+20
 20
-1.0000000000E+20
 30
-1.0000000000E+20
  9
$PLIMMIN
 10
0.0
 20
0.0
  9
$PLIMMAX
 10
420.0
 20
297.0
  9
$UNITMODE
 70
     0
  9
$VISRETAIN
 70
     1
  9
$PLINEGEN
 70
     0
  9
$PSLTSCALE
 70
     1
  0
ENDSEC
  0
SECTION
  2
TABLES
  0
TABLE
  2
VPORT
 70
     1
  0
VPORT
  2
*ACTIVE
 70
     0
 10
0.0
 20
0.0
 11
1.0
 21
1.0
 12
148.5
 22
105.0
 13
0.0
 23
0.0
 14
10.0
 24
10.0
 15
10.0
 25
10.0
 16
0.0
 26
0.0
 36
1.0
 17
0.0
 27
0.0
 37
0.0
 40
210.0
 41
1.4142857143
 42
50.0
 43
0.0
 44
0.0
 50
0.0
 51
0.0
 71
     0
 72
  2000
 73
     1
 74
     3
 75
     0
 76
     0
 77
     0
 78
     0
  0
ENDTAB
  0
TABLE
  2
LTYPE
 70
     6
  0
LTYPE
  2
CONTINUOUS
 70
     0
  3
Solid line
 72
    65
 73
     0
 40
0.0
  0
LTYPE
  2
HIDDEN
 70
     0
  3
Hidden __ __ __ __ __ __ __ __ __ __ __ __ __ __
 72
    65
 73
     2
 40
1.905
 49
1.27
 49
-0.635
  0
LTYPE
  2
PHANTOM
 70
     0
  3
Phantom ______  __  __  ______  __  __  ______
 72
    65
 73
     6
 40
12.7
 49
6.35
 49
-1.27
 49
1.27
 49
-1.27
 49
1.27
 49
-1.27
  0
LTYPE
  2
CENTER
 70
     0
  3
Center ____ _ ____ _ ____ _ ____ _ ____ _ ____
 72
    65
 73
     4
 40
10.16
 49
6.35
 49
-1.27
 49
1.27
 49
-1.27
  0
LTYPE
  2
CENTERX2
 70
     0
  3
Center (2x) ________  __  ________  __  _____
 72
    65
 73
     4
 40
20.32
 49
12.7
 49
-2.54
 49
2.54
 49
-2.54
  0
LTYPE
  2
DOT2
 70
     0
  3
Dot (.5x) ........................................
 72
    65
 73
     2
 40
0.635
 49
0.0
 49
-0.635
  0
ENDTAB
  0
TABLE
  2
LAYER
 70
     1
  0
LAYER
  2
0
 70
     0
 62
     7
  6
CONTINUOUS
  0
ENDTAB
  0
TABLE
  2
STYLE
 70
     1
  0
STYLE
  2
STANDARD
 70
     0
 40
0.0
 41
1.0
 50
0.0
 71
     0
 42
2.5
  3
txt
  4

  0
ENDTAB
  0
TABLE
  2
VIEW
 70
     0
  0
ENDTAB
  0
TABLE
  2
UCS
 70
     0
  0
ENDTAB
  0
TABLE
  2
APPID
 70
     1
  0
APPID
  2
ACAD
 70
     0
  0
ENDTAB
  0
TABLE
  2
DIMSTYLE
 70
     2
  0
DIMSTYLE
  2
ISO-25
 70
     0
  3

  4

  5

  6

  7

 40
1.0
 41
2.5
 42
0.625
 43
3.75
 44
1.25
 45
0.0
 46
0.0
 47
0.0
 48
0.0
140
2.5
141
2.5
142
0.0
143
0.0393700787
144
1.0
145
0.0
146
1.0
147
0.625
 71
     0
 72
     0
 73
     0
 74
     0
 75
     0
 76
     0
 77
     1
 78
     8
170
     0
171
     3
172
     1
173
     0
174
     0
175
     0
176
     0
177
     0
178
     0
  0
DIMSTYLE
  2
SLDDIMSTYLE0
 70
     0
  3

  4

  5

  6

  7

 40
1.0
 41
3.302
 42
0.0625
 43
0.38
 44
0.0
 45
0.000000001
 46
0.0
 47
0.0
 48
0.0
140
3.175
141
0.09
142
0.0
143
25.4
144
1.0
145
0.0
146
1.0
147
0.79375
 71
     0
 72
     0
 73
     1
 74
     1
 75
     0
 76
     0
 77
     0
 78
    12
170
     0
171
     2
172
     0
173
     1
174
     0
175
     0
176
     0
177
     0
178
     0
  0
ENDTAB
  0
ENDSEC
  0
SECTION
  2
BLOCKS
  0
BLOCK
  8
0
  2
$MODEL_SPACE
 70
     0
 10
0.0
 20
0.0
 30
0.0
  3
$MODEL_SPACE
  1

  0
ENDBLK
  5
21
  8
0
  0
BLOCK
 67
     1
  8
0
  2
$PAPER_SPACE
 70
     0
 10
0.0
 20
0.0
 30
0.0
  3
$PAPER_SPACE
  1

  0
ENDBLK
  5
1D
 67
     1
  8
0
  0
BLOCK
  8
0
  2
*D1
 70
     1
 10
0.0
 20
0.0
 30
0.0
  3
*D1
  1

  0
SOLID
  5
209
  8
0
  6
CONTINUOUS
 62
     7
 10
191.1911721344
 20
205.4789637891
 30
0.0
 11
187.8891721344
 21
205.9869637891
 31
0.0
 12
187.8891721344
 22
204.9709637891
 32
0.0
 13
187.8891721344
 23
204.9709637891
 33
0.0
  0
SOLID
  5
20A
  8
0
  6
CONTINUOUS
 62
     7
 10
86.1911721344
 20
205.4789637891
 30
0.0
 11
89.4931721344
 21
204.9709637891
 31
0.0
 12
89.4931721344
 22
205.9869637891
 32
0.0
 13
89.4931721344
 23
205.9869637891
 33
0.0
  0
LINE
  5
20B
  8
0
  6
CONTINUOUS
 62
     7
 10
191.1911721344
 20
200.7708223287
 30
0.0
 11
191.1911721344
 21
208.6539637891
 31
0.0
  0
LINE
  5
20C
  8
0
  6
CONTINUOUS
 62
     7
 10
86.1911721344
 20
200.7708223287
 30
0.0
 11
86.1911721344
 21
208.6539637891
 31
0.0
  0
LINE
  5
20D
  8
0
  6
CONTINUOUS
 62
     7
 10
191.1911721344
 20
205.4789637891
 30
0.0
 11
142.7085633949
 21
205.4789637891
 31
0.0
  0
LINE
  5
20E
  8
0
  6
CONTINUOUS
 62
     7
 10
86.1911721344
 20
205.4789637891
 30
0.0
 11
132.5004278723
 21
205.4789637891
 31
0.0
  0
TEXT
  5
20F
  8
0
  6
CONTINUOUS
 62
     7
 10
134.0879278723
 20
204.081541445
 30
0.0
 40
3.175
  1
105
 41
0.7
 11
134.0879278723
 21
202.9599407484
 31
0.0
 73
     1
  0
ENDBLK
  5
208
  8
0
  0
BLOCK
  8
0
  2
*D2
 70
     1
 10
0.0
 20
0.0
 30
0.0
  3
*D2
  1

  0
SOLID
  5
214
  8
0
  6
CONTINUOUS
 62
     7
 10
79.5718939356
 20
199.5008223287
 30
0.0
 11
79.0638939356
 21
196.1988223287
 31
0.0
 12
80.0798939356
 22
196.1988223287
 32
0.0
 13
80.0798939356
 23
196.1988223287
 33
0.0
  0
SOLID
  5
215
  8
0
  6
CONTINUOUS
 62
     7
 10
79.5718939356
 20
3.5008223287
 30
0.0
 11
80.0798939356
 21
6.8028223287
 31
0.0
 12
79.0638939356
 22
6.8028223287
 32
0.0
 13
79.0638939356
 23
6.8028223287
 33
0.0
  0
LINE
  5
216
  8
0
  6
CONTINUOUS
 62
     7
 10
84.9211721344
 20
199.5008223287
 30
0.0
 11
76.3968939356
 21
199.5008223287
 31
0.0
  0
LINE
  5
217
  8
0
  6
CONTINUOUS
 62
     7
 10
84.9211721344
 20
3.5008223287
 30
0.0
 11
76.3968939356
 21
3.5008223287
 31
0.0
  0
LINE
  5
218
  8
0
  6
CONTINUOUS
 62
     7
 10
79.5718939356
 20
199.5008223287
 30
0.0
 11
79.5718939356
 21
114.134085899
 31
0.0
  0
LINE
  5
219
  8
0
  6
CONTINUOUS
 62
     7
 10
79.5718939356
 20
3.5008223287
 30
0.0
 11
79.5718939356
 21
109.0960401669
 31
0.0
  0
TEXT
  5
21A
  8
0
  6
CONTINUOUS
 62
     7
 10
76.0553261743
 20
110.2176406889
 30
0.0
 40
3.175
  1
196
 41
0.7
 11
76.0553261743
 21
109.0960399923
 31
0.0
 73
     1
  0
ENDBLK
  5
213
  8
0
  0
ENDSEC
  0
SECTION
  2
ENTITIES
  0
LINE
  5
40
  8
0
  6
CONTINUOUS
 62
     7
 10
117.2911728586
 20
168.3008206121
 30
0.0
 11
117.2911728586
 21
174.3008253209
 31
0.0
  0
LINE
  5
41
  8
0
  6
CONTINUOUS
 62
     7
 10
117.2911728586
 20
174.3008253209
 30
0.0
 11
116.0911730345
 21
174.3008253209
 31
0.0
  0
LINE
  5
42
  8
0
  6
CONTINUOUS
 62
     7
 10
116.0911730345
 20
174.3008253209
 30
0.0
 11
116.0911730345
 21
168.3008206121
 31
0.0
  0
LINE
  5
43
  8
0
  6
CONTINUOUS
 62
     7
 10
116.0911730345
 20
168.3008206121
 30
0.0
 11
117.2911728586
 21
168.3008206121
 31
0.0
  0
LINE
  5
44
  8
0
  6
CONTINUOUS
 62
     7
 10
117.2911728586
 20
148.3008210592
 30
0.0
 11
117.2911728586
 21
154.3008220426
 31
0.0
  0
LINE
  5
45
  8
0
  6
CONTINUOUS
 62
     7
 10
117.2911728586
 20
154.3008220426
 30
0.0
 11
116.0911730345
 21
154.3008220426
 31
0.0
  0
LINE
  5
46
  8
0
  6
CONTINUOUS
 62
     7
 10
116.0911730345
 20
154.3008220426
 30
0.0
 11
116.0911730345
 21
148.3008210592
 31
0.0
  0
LINE
  5
47
  8
0
  6
CONTINUOUS
 62
     7
 10
116.0911730345
 20
148.3008210592
 30
0.0
 11
117.2911728586
 21
148.3008210592
 31
0.0
  0
LINE
  5
48
  8
0
  6
CONTINUOUS
 62
     7
 10
117.2911728586
 20
128.3008215062
 30
0.0
 11
117.2911728586
 21
134.3008224897
 31
0.0
  0
LINE
  5
49
  8
0
  6
CONTINUOUS
 62
     7
 10
117.2911728586
 20
134.3008224897
 30
0.0
 11
116.0911730345
 21
134.3008224897
 31
0.0
  0
LINE
  5
4A
  8
0
  6
CONTINUOUS
 62
     7
 10
116.0911730345
 20
134.3008224897
 30
0.0
 11
116.0911730345
 21
128.3008215062
 31
0.0
  0
LINE
  5
4B
  8
0
  6
CONTINUOUS
 62
     7
 10
116.0911730345
 20
128.3008215062
 30
0.0
 11
117.2911728586
 21
128.3008215062
 31
0.0
  0
LINE
  5
4C
  8
0
  6
CONTINUOUS
 62
     7
 10
117.2911728586
 20
108.3008224189
 30
0.0
 11
117.2911728586
 21
114.3008220054
 31
0.0
  0
LINE
  5
4D
  8
0
  6
CONTINUOUS
 62
     7
 10
117.2911728586
 20
114.3008220054
 30
0.0
 11
116.0911730345
 21
114.3008220054
 31
0.0
  0
LINE
  5
4E
  8
0
  6
CONTINUOUS
 62
     7
 10
116.0911730345
 20
114.3008220054
 30
0.0
 11
116.0911730345
 21
108.3008224189
 31
0.0
  0
LINE
  5
4F
  8
0
  6
CONTINUOUS
 62
     7
 10
116.0911730345
 20
108.3008224189
 30
0.0
 11
117.2911728586
 21
108.3008224189
 31
0.0
  0
LINE
  5
50
  8
0
  6
CONTINUOUS
 62
     7
 10
117.2911728586
 20
88.3008224003
 30
0.0
 11
117.2911728586
 21
94.3008224524
 31
0.0
  0
LINE
  5
51
  8
0
  6
CONTINUOUS
 62
     7
 10
117.2911728586
 20
94.3008224524
 30
0.0
 11
116.0911730345
 21
94.3008224524
 31
0.0
  0
LINE
  5
52
  8
0
  6
CONTINUOUS
 62
     7
 10
116.0911730345
 20
94.3008224524
 30
0.0
 11
116.0911730345
 21
88.3008224003
 31
0.0
  0
LINE
  5
53
  8
0
  6
CONTINUOUS
 62
     7
 10
116.0911730345
 20
88.3008224003
 30
0.0
 11
117.2911728586
 21
88.3008224003
 31
0.0
  0
LINE
  5
54
  8
0
  6
CONTINUOUS
 62
     7
 10
117.2911728586
 20
68.3008228473
 30
0.0
 11
117.2911728586
 21
74.3008219681
 31
0.0
  0
LINE
  5
55
  8
0
  6
CONTINUOUS
 62
     7
 10
117.2911728586
 20
74.3008219681
 30
0.0
 11
116.0911730345
 21
74.3008219681
 31
0.0
  0
LINE
  5
56
  8
0
  6
CONTINUOUS
 62
     7
 10
116.0911730345
 20
74.3008219681
 30
0.0
 11
116.0911730345
 21
68.3008228473
 31
0.0
  0
LINE
  5
57
  8
0
  6
CONTINUOUS
 62
     7
 10
116.0911730345
 20
68.3008228473
 30
0.0
 11
117.2911728586
 21
68.3008228473
 31
0.0
  0
LINE
  5
58
  8
0
  6
CONTINUOUS
 62
     7
 10
117.2911728586
 20
28.3008200161
 30
0.0
 11
117.2911728586
 21
34.3008247248
 31
0.0
  0
LINE
  5
59
  8
0
  6
CONTINUOUS
 62
     7
 10
117.2911728586
 20
34.3008247248
 30
0.0
 11
116.0911730345
 21
34.3008247248
 31
0.0
  0
LINE
  5
5A
  8
0
  6
CONTINUOUS
 62
     7
 10
116.0911730345
 20
34.3008247248
 30
0.0
 11
116.0911730345
 21
28.3008200161
 31
0.0
  0
LINE
  5
5B
  8
0
  6
CONTINUOUS
 62
     7
 10
116.0911730345
 20
28.3008200161
 30
0.0
 11
117.2911728586
 21
28.3008200161
 31
0.0
  0
LINE
  5
5C
  8
0
  6
CONTINUOUS
 62
     7
 10
117.2911728586
 20
48.3008232943
 30
0.0
 11
117.2911728586
 21
54.3008205525
 31
0.0
  0
LINE
  5
5D
  8
0
  6
CONTINUOUS
 62
     7
 10
117.2911728586
 20
54.3008205525
 30
0.0
 11
116.0911730345
 21
54.3008205525
 31
0.0
  0
LINE
  5
5E
  8
0
  6
CONTINUOUS
 62
     7
 10
116.0911730345
 20
54.3008205525
 30
0.0
 11
116.0911730345
 21
48.3008232943
 31
0.0
  0
LINE
  5
5F
  8
0
  6
CONTINUOUS
 62
     7
 10
116.0911730345
 20
48.3008232943
 30
0.0
 11
117.2911728586
 21
48.3008232943
 31
0.0
  0
LINE
  5
60
  8
0
  6
CONTINUOUS
 62
     7
 10
115.1911727007
 20
16.1008221142
 30
0.0
 11
115.1911727007
 21
11.1008194319
 31
0.0
  0
LINE
  5
61
  8
0
  6
CONTINUOUS
 62
     7
 10
114.1911725368
 20
16.1008221142
 30
0.0
 11
115.1911727007
 21
16.1008221142
 31
0.0
  0
LINE
  5
62
  8
0
  6
CONTINUOUS
 62
     7
 10
114.1911725368
 20
186.5008232228
 30
0.0
 11
114.1911725368
 21
16.1008221142
 31
0.0
  0
LINE
  5
63
  8
0
  6
CONTINUOUS
 62
     7
 10
115.1911727007
 20
191.500825905
 30
0.0
 11
115.1911727007
 21
186.5008232228
 31
0.0
  0
LINE
  5
64
  8
0
  6
CONTINUOUS
 62
     7
 10
116.4407691772
 20
191.500825905
 30
0.0
 11
115.1911727007
 21
191.500825905
 31
0.0
  0
LINE
  5
65
  8
0
  6
CONTINUOUS
 62
     7
 10
118.1911713298
 20
191.500825905
 30
0.0
 11
116.9415748532
 21
191.500825905
 31
0.0
  0
LINE
  5
66
  8
0
  6
CONTINUOUS
 62
     7
 10
118.1911713298
 20
186.5008232228
 30
0.0
 11
118.1911713298
 21
191.500825905
 31
0.0
  0
LINE
  5
67
  8
0
  6
CONTINUOUS
 62
     7
 10
119.1911714937
 20
186.5008232228
 30
0.0
 11
118.1911713298
 21
186.5008232228
 31
0.0
  0
LINE
  5
68
  8
0
  6
CONTINUOUS
 62
     7
 10
119.1911714937
 20
16.1008221142
 30
0.0
 11
119.1911714937
 21
186.5008232228
 31
0.0
  0
LINE
  5
69
  8
0
  6
CONTINUOUS
 62
     7
 10
118.1911713298
 20
16.1008221142
 30
0.0
 11
119.1911714937
 21
16.1008221142
 31
0.0
  0
LINE
  5
6A
  8
0
  6
CONTINUOUS
 62
     7
 10
118.1911713298
 20
11.1008194319
 30
0.0
 11
118.1911713298
 21
16.1008221142
 31
0.0
  0
LINE
  5
6B
  8
0
  6
CONTINUOUS
 62
     7
 10
116.9415748532
 20
11.1008194319
 30
0.0
 11
118.1911713298
 21
11.1008194319
 31
0.0
  0
LINE
  5
6C
  8
0
  6
CONTINUOUS
 62
     7
 10
115.1911727007
 20
11.1008194319
 30
0.0
 11
116.4407691772
 21
11.1008194319
 31
0.0
  0
LINE
  5
6D
  8
0
  6
CONTINUOUS
 62
     7
 10
115.1911727007
 20
186.5008232228
 30
0.0
 11
114.1911725368
 21
186.5008232228
 31
0.0
  0
LINE
  5
6E
  8
0
  6
CONTINUOUS
 62
     7
 10
106.2911719869
 20
168.3008206121
 30
0.0
 11
106.2911719869
 21
174.3008253209
 31
0.0
  0
LINE
  5
6F
  8
0
  6
CONTINUOUS
 62
     7
 10
106.2911719869
 20
174.3008253209
 30
0.0
 11
105.0911721627
 21
174.3008253209
 31
0.0
  0
LINE
  5
70
  8
0
  6
CONTINUOUS
 62
     7
 10
105.0911721627
 20
174.3008253209
 30
0.0
 11
105.0911721627
 21
168.3008206121
 31
0.0
  0
LINE
  5
71
  8
0
  6
CONTINUOUS
 62
     7
 10
105.0911721627
 20
168.3008206121
 30
0.0
 11
106.2911719869
 21
168.3008206121
 31
0.0
  0
LINE
  5
72
  8
0
  6
CONTINUOUS
 62
     7
 10
106.2911719869
 20
148.3008210592
 30
0.0
 11
106.2911719869
 21
154.3008220426
 31
0.0
  0
LINE
  5
73
  8
0
  6
CONTINUOUS
 62
     7
 10
106.2911719869
 20
154.3008220426
 30
0.0
 11
105.0911721627
 21
154.3008220426
 31
0.0
  0
LINE
  5
74
  8
0
  6
CONTINUOUS
 62
     7
 10
105.0911721627
 20
154.3008220426
 30
0.0
 11
105.0911721627
 21
148.3008210592
 31
0.0
  0
LINE
  5
75
  8
0
  6
CONTINUOUS
 62
     7
 10
105.0911721627
 20
148.3008210592
 30
0.0
 11
106.2911719869
 21
148.3008210592
 31
0.0
  0
LINE
  5
76
  8
0
  6
CONTINUOUS
 62
     7
 10
106.2911719869
 20
128.3008215062
 30
0.0
 11
106.2911719869
 21
134.3008224897
 31
0.0
  0
LINE
  5
77
  8
0
  6
CONTINUOUS
 62
     7
 10
106.2911719869
 20
134.3008224897
 30
0.0
 11
105.0911721627
 21
134.3008224897
 31
0.0
  0
LINE
  5
78
  8
0
  6
CONTINUOUS
 62
     7
 10
105.0911721627
 20
134.3008224897
 30
0.0
 11
105.0911721627
 21
128.3008215062
 31
0.0
  0
LINE
  5
79
  8
0
  6
CONTINUOUS
 62
     7
 10
105.0911721627
 20
128.3008215062
 30
0.0
 11
106.2911719869
 21
128.3008215062
 31
0.0
  0
LINE
  5
7A
  8
0
  6
CONTINUOUS
 62
     7
 10
106.2911719869
 20
108.3008224189
 30
0.0
 11
106.2911719869
 21
114.3008220054
 31
0.0
  0
LINE
  5
7B
  8
0
  6
CONTINUOUS
 62
     7
 10
106.2911719869
 20
114.3008220054
 30
0.0
 11
105.0911721627
 21
114.3008220054
 31
0.0
  0
LINE
  5
7C
  8
0
  6
CONTINUOUS
 62
     7
 10
105.0911721627
 20
114.3008220054
 30
0.0
 11
105.0911721627
 21
108.3008224189
 31
0.0
  0
LINE
  5
7D
  8
0
  6
CONTINUOUS
 62
     7
 10
105.0911721627
 20
108.3008224189
 30
0.0
 11
106.2911719869
 21
108.3008224189
 31
0.0
  0
LINE
  5
7E
  8
0
  6
CONTINUOUS
 62
     7
 10
106.2911719869
 20
88.3008224003
 30
0.0
 11
106.2911719869
 21
94.3008224524
 31
0.0
  0
LINE
  5
7F
  8
0
  6
CONTINUOUS
 62
     7
 10
106.2911719869
 20
94.3008224524
 30
0.0
 11
105.0911721627
 21
94.3008224524
 31
0.0
  0
LINE
  5
80
  8
0
  6
CONTINUOUS
 62
     7
 10
105.0911721627
 20
94.3008224524
 30
0.0
 11
105.0911721627
 21
88.3008224003
 31
0.0
  0
LINE
  5
81
  8
0
  6
CONTINUOUS
 62
     7
 10
105.0911721627
 20
88.3008224003
 30
0.0
 11
106.2911719869
 21
88.3008224003
 31
0.0
  0
LINE
  5
82
  8
0
  6
CONTINUOUS
 62
     7
 10
106.2911719869
 20
68.3008228473
 30
0.0
 11
106.2911719869
 21
74.3008219681
 31
0.0
  0
LINE
  5
83
  8
0
  6
CONTINUOUS
 62
     7
 10
106.2911719869
 20
74.3008219681
 30
0.0
 11
105.0911721627
 21
74.3008219681
 31
0.0
  0
LINE
  5
84
  8
0
  6
CONTINUOUS
 62
     7
 10
105.0911721627
 20
74.3008219681
 30
0.0
 11
105.0911721627
 21
68.3008228473
 31
0.0
  0
LINE
  5
85
  8
0
  6
CONTINUOUS
 62
     7
 10
105.0911721627
 20
68.3008228473
 30
0.0
 11
106.2911719869
 21
68.3008228473
 31
0.0
  0
LINE
  5
86
  8
0
  6
CONTINUOUS
 62
     7
 10
106.2911719869
 20
28.3008200161
 30
0.0
 11
106.2911719869
 21
34.3008247248
 31
0.0
  0
LINE
  5
87
  8
0
  6
CONTINUOUS
 62
     7
 10
106.2911719869
 20
34.3008247248
 30
0.0
 11
105.0911721627
 21
34.3008247248
 31
0.0
  0
LINE
  5
88
  8
0
  6
CONTINUOUS
 62
     7
 10
105.0911721627
 20
34.3008247248
 30
0.0
 11
105.0911721627
 21
28.3008200161
 31
0.0
  0
LINE
  5
89
  8
0
  6
CONTINUOUS
 62
     7
 10
105.0911721627
 20
28.3008200161
 30
0.0
 11
106.2911719869
 21
28.3008200161
 31
0.0
  0
LINE
  5
8A
  8
0
  6
CONTINUOUS
 62
     7
 10
106.2911719869
 20
48.3008232943
 30
0.0
 11
106.2911719869
 21
54.3008205525
 31
0.0
  0
LINE
  5
8B
  8
0
  6
CONTINUOUS
 62
     7
 10
106.2911719869
 20
54.3008205525
 30
0.0
 11
105.0911721627
 21
54.3008205525
 31
0.0
  0
LINE
  5
8C
  8
0
  6
CONTINUOUS
 62
     7
 10
105.0911721627
 20
54.3008205525
 30
0.0
 11
105.0911721627
 21
48.3008232943
 31
0.0
  0
LINE
  5
8D
  8
0
  6
CONTINUOUS
 62
     7
 10
105.0911721627
 20
48.3008232943
 30
0.0
 11
106.2911719869
 21
48.3008232943
 31
0.0
  0
LINE
  5
8E
  8
0
  6
CONTINUOUS
 62
     7
 10
104.1911718289
 20
16.1008221142
 30
0.0
 11
104.1911718289
 21
11.1008194319
 31
0.0
  0
LINE
  5
8F
  8
0
  6
CONTINUOUS
 62
     7
 10
103.1911725964
 20
186.5008232228
 30
0.0
 11
103.1911725964
 21
16.1008221142
 31
0.0
  0
LINE
  5
90
  8
0
  6
CONTINUOUS
 62
     7
 10
104.1911718289
 20
191.500825905
 30
0.0
 11
104.1911718289
 21
186.5008232228
 31
0.0
  0
LINE
  5
91
  8
0
  6
CONTINUOUS
 62
     7
 10
105.4407692368
 20
191.500825905
 30
0.0
 11
104.1911718289
 21
191.500825905
 31
0.0
  0
LINE
  5
92
  8
0
  6
CONTINUOUS
 62
     7
 10
107.1911723207
 20
191.500825905
 30
0.0
 11
105.9415758441
 21
191.500825905
 31
0.0
  0
LINE
  5
93
  8
0
  6
CONTINUOUS
 62
     7
 10
107.1911723207
 20
186.5008232228
 30
0.0
 11
107.1911723207
 21
191.500825905
 31
0.0
  0
LINE
  5
94
  8
0
  6
CONTINUOUS
 62
     7
 10
108.1911724846
 20
16.1008221142
 30
0.0
 11
108.1911724846
 21
186.5008232228
 31
0.0
  0
LINE
  5
95
  8
0
  6
CONTINUOUS
 62
     7
 10
107.1911723207
 20
11.1008194319
 30
0.0
 11
107.1911723207
 21
16.1008221142
 31
0.0
  0
LINE
  5
96
  8
0
  6
CONTINUOUS
 62
     7
 10
105.9415758441
 20
11.1008194319
 30
0.0
 11
107.1911723207
 21
11.1008194319
 31
0.0
  0
LINE
  5
97
  8
0
  6
CONTINUOUS
 62
     7
 10
104.1911718289
 20
11.1008194319
 30
0.0
 11
105.4407692368
 21
11.1008194319
 31
0.0
  0
LINE
  5
98
  8
0
  6
CONTINUOUS
 62
     7
 10
104.1911718289
 20
186.5008232228
 30
0.0
 11
103.1911725964
 21
186.5008232228
 31
0.0
  0
LINE
  5
99
  8
0
  6
CONTINUOUS
 62
     7
 10
103.1911725964
 20
16.1008221142
 30
0.0
 11
104.1911718289
 21
16.1008221142
 31
0.0
  0
LINE
  5
9A
  8
0
  6
CONTINUOUS
 62
     7
 10
108.1911724846
 20
186.5008232228
 30
0.0
 11
107.1911723207
 21
186.5008232228
 31
0.0
  0
LINE
  5
9B
  8
0
  6
CONTINUOUS
 62
     7
 10
107.1911723207
 20
16.1008221142
 30
0.0
 11
108.1911724846
 21
16.1008221142
 31
0.0
  0
LINE
  5
9C
  8
0
  6
CONTINUOUS
 62
     7
 10
95.2911721629
 20
168.3008206121
 30
0.0
 11
95.2911721629
 21
174.3008253209
 31
0.0
  0
LINE
  5
9D
  8
0
  6
CONTINUOUS
 62
     7
 10
95.2911721629
 20
174.3008253209
 30
0.0
 11
94.0911721059
 21
174.3008253209
 31
0.0
  0
LINE
  5
9E
  8
0
  6
CONTINUOUS
 62
     7
 10
94.0911721059
 20
174.3008253209
 30
0.0
 11
94.0911721059
 21
168.3008206121
 31
0.0
  0
LINE
  5
9F
  8
0
  6
CONTINUOUS
 62
     7
 10
94.0911721059
 20
168.3008206121
 30
0.0
 11
95.2911721629
 21
168.3008206121
 31
0.0
  0
LINE
  5
A0
  8
0
  6
CONTINUOUS
 62
     7
 10
95.2911721629
 20
148.3008210592
 30
0.0
 11
95.2911721629
 21
154.3008220426
 31
0.0
  0
LINE
  5
A1
  8
0
  6
CONTINUOUS
 62
     7
 10
95.2911721629
 20
154.3008220426
 30
0.0
 11
94.0911721059
 21
154.3008220426
 31
0.0
  0
LINE
  5
A2
  8
0
  6
CONTINUOUS
 62
     7
 10
94.0911721059
 20
154.3008220426
 30
0.0
 11
94.0911721059
 21
148.3008210592
 31
0.0
  0
LINE
  5
A3
  8
0
  6
CONTINUOUS
 62
     7
 10
94.0911721059
 20
148.3008210592
 30
0.0
 11
95.2911721629
 21
148.3008210592
 31
0.0
  0
LINE
  5
A4
  8
0
  6
CONTINUOUS
 62
     7
 10
95.2911721629
 20
128.3008215062
 30
0.0
 11
95.2911721629
 21
134.3008224897
 31
0.0
  0
LINE
  5
A5
  8
0
  6
CONTINUOUS
 62
     7
 10
95.2911721629
 20
134.3008224897
 30
0.0
 11
94.0911721059
 21
134.3008224897
 31
0.0
  0
LINE
  5
A6
  8
0
  6
CONTINUOUS
 62
     7
 10
94.0911721059
 20
134.3008224897
 30
0.0
 11
94.0911721059
 21
128.3008215062
 31
0.0
  0
LINE
  5
A7
  8
0
  6
CONTINUOUS
 62
     7
 10
94.0911721059
 20
128.3008215062
 30
0.0
 11
95.2911721629
 21
128.3008215062
 31
0.0
  0
LINE
  5
A8
  8
0
  6
CONTINUOUS
 62
     7
 10
95.2911721629
 20
108.3008224189
 30
0.0
 11
95.2911721629
 21
114.3008220054
 31
0.0
  0
LINE
  5
A9
  8
0
  6
CONTINUOUS
 62
     7
 10
95.2911721629
 20
114.3008220054
 30
0.0
 11
94.0911721059
 21
114.3008220054
 31
0.0
  0
LINE
  5
AA
  8
0
  6
CONTINUOUS
 62
     7
 10
94.0911721059
 20
114.3008220054
 30
0.0
 11
94.0911721059
 21
108.3008224189
 31
0.0
  0
LINE
  5
AB
  8
0
  6
CONTINUOUS
 62
     7
 10
94.0911721059
 20
108.3008224189
 30
0.0
 11
95.2911721629
 21
108.3008224189
 31
0.0
  0
LINE
  5
AC
  8
0
  6
CONTINUOUS
 62
     7
 10
95.2911721629
 20
88.3008224003
 30
0.0
 11
95.2911721629
 21
94.3008224524
 31
0.0
  0
LINE
  5
AD
  8
0
  6
CONTINUOUS
 62
     7
 10
95.2911721629
 20
94.3008224524
 30
0.0
 11
94.0911721059
 21
94.3008224524
 31
0.0
  0
LINE
  5
AE
  8
0
  6
CONTINUOUS
 62
     7
 10
94.0911721059
 20
94.3008224524
 30
0.0
 11
94.0911721059
 21
88.3008224003
 31
0.0
  0
LINE
  5
AF
  8
0
  6
CONTINUOUS
 62
     7
 10
94.0911721059
 20
88.3008224003
 30
0.0
 11
95.2911721629
 21
88.3008224003
 31
0.0
  0
LINE
  5
B0
  8
0
  6
CONTINUOUS
 62
     7
 10
95.2911721629
 20
68.3008228473
 30
0.0
 11
95.2911721629
 21
74.3008219681
 31
0.0
  0
LINE
  5
B1
  8
0
  6
CONTINUOUS
 62
     7
 10
95.2911721629
 20
74.3008219681
 30
0.0
 11
94.0911721059
 21
74.3008219681
 31
0.0
  0
LINE
  5
B2
  8
0
  6
CONTINUOUS
 62
     7
 10
94.0911721059
 20
74.3008219681
 30
0.0
 11
94.0911721059
 21
68.3008228473
 31
0.0
  0
LINE
  5
B3
  8
0
  6
CONTINUOUS
 62
     7
 10
94.0911721059
 20
68.3008228473
 30
0.0
 11
95.2911721629
 21
68.3008228473
 31
0.0
  0
LINE
  5
B4
  8
0
  6
CONTINUOUS
 62
     7
 10
95.2911721629
 20
28.3008200161
 30
0.0
 11
95.2911721629
 21
34.3008247248
 31
0.0
  0
LINE
  5
B5
  8
0
  6
CONTINUOUS
 62
     7
 10
95.2911721629
 20
34.3008247248
 30
0.0
 11
94.0911721059
 21
34.3008247248
 31
0.0
  0
LINE
  5
B6
  8
0
  6
CONTINUOUS
 62
     7
 10
94.0911721059
 20
34.3008247248
 30
0.0
 11
94.0911721059
 21
28.3008200161
 31
0.0
  0
LINE
  5
B7
  8
0
  6
CONTINUOUS
 62
     7
 10
94.0911721059
 20
28.3008200161
 30
0.0
 11
95.2911721629
 21
28.3008200161
 31
0.0
  0
LINE
  5
B8
  8
0
  6
CONTINUOUS
 62
     7
 10
95.2911721629
 20
48.3008232943
 30
0.0
 11
95.2911721629
 21
54.3008205525
 31
0.0
  0
LINE
  5
B9
  8
0
  6
CONTINUOUS
 62
     7
 10
95.2911721629
 20
54.3008205525
 30
0.0
 11
94.0911721059
 21
54.3008205525
 31
0.0
  0
LINE
  5
BA
  8
0
  6
CONTINUOUS
 62
     7
 10
94.0911721059
 20
54.3008205525
 30
0.0
 11
94.0911721059
 21
48.3008232943
 31
0.0
  0
LINE
  5
BB
  8
0
  6
CONTINUOUS
 62
     7
 10
94.0911721059
 20
48.3008232943
 30
0.0
 11
95.2911721629
 21
48.3008232943
 31
0.0
  0
LINE
  5
BC
  8
0
  6
CONTINUOUS
 62
     7
 10
92.1911721903
 20
16.1008221142
 30
0.0
 11
93.1911721214
 21
16.1008221142
 31
0.0
  0
LINE
  5
BD
  8
0
  6
CONTINUOUS
 62
     7
 10
92.1911721903
 20
186.5008232228
 30
0.0
 11
92.1911721903
 21
16.1008221142
 31
0.0
  0
LINE
  5
BE
  8
0
  6
CONTINUOUS
 62
     7
 10
93.1911721214
 20
191.500825905
 30
0.0
 11
93.1911721214
 21
186.5008232228
 31
0.0
  0
LINE
  5
BF
  8
0
  6
CONTINUOUS
 62
     7
 10
94.4407688017
 20
191.500825905
 30
0.0
 11
93.1911721214
 21
191.500825905
 31
0.0
  0
LINE
  5
C0
  8
0
  6
CONTINUOUS
 62
     7
 10
96.1911721475
 20
191.500825905
 30
0.0
 11
94.9415754672
 21
191.500825905
 31
0.0
  0
LINE
  5
C1
  8
0
  6
CONTINUOUS
 62
     7
 10
96.1911721475
 20
186.5008232228
 30
0.0
 11
96.1911721475
 21
191.500825905
 31
0.0
  0
LINE
  5
C2
  8
0
  6
CONTINUOUS
 62
     7
 10
97.1911720785
 20
16.1008221142
 30
0.0
 11
97.1911720785
 21
186.5008232228
 31
0.0
  0
LINE
  5
C3
  8
0
  6
CONTINUOUS
 62
     7
 10
96.1911721475
 20
16.1008221142
 30
0.0
 11
97.1911720785
 21
16.1008221142
 31
0.0
  0
LINE
  5
C4
  8
0
  6
CONTINUOUS
 62
     7
 10
96.1911721475
 20
11.1008194319
 30
0.0
 11
96.1911721475
 21
16.1008221142
 31
0.0
  0
LINE
  5
C5
  8
0
  6
CONTINUOUS
 62
     7
 10
94.9415754672
 20
11.1008194319
 30
0.0
 11
96.1911721475
 21
11.1008194319
 31
0.0
  0
LINE
  5
C6
  8
0
  6
CONTINUOUS
 62
     7
 10
93.1911721214
 20
11.1008194319
 30
0.0
 11
94.4407688017
 21
11.1008194319
 31
0.0
  0
LINE
  5
C7
  8
0
  6
CONTINUOUS
 62
     7
 10
93.1911721214
 20
186.5008232228
 30
0.0
 11
92.1911721903
 21
186.5008232228
 31
0.0
  0
LINE
  5
C8
  8
0
  6
CONTINUOUS
 62
     7
 10
97.1911720785
 20
186.5008232228
 30
0.0
 11
96.1911721475
 21
186.5008232228
 31
0.0
  0
LINE
  5
C9
  8
0
  6
CONTINUOUS
 62
     7
 10
93.1911721214
 20
16.1008221142
 30
0.0
 11
93.1911721214
 21
11.1008194319
 31
0.0
  0
LINE
  5
CA
  8
0
  6
CONTINUOUS
 62
     7
 10
139.2911708768
 20
168.3008206121
 30
0.0
 11
139.2911708768
 21
174.3008253209
 31
0.0
  0
LINE
  5
CB
  8
0
  6
CONTINUOUS
 62
     7
 10
139.2911708768
 20
174.3008253209
 30
0.0
 11
138.0911729152
 21
174.3008253209
 31
0.0
  0
LINE
  5
CC
  8
0
  6
CONTINUOUS
 62
     7
 10
138.0911729152
 20
174.3008253209
 30
0.0
 11
138.0911729152
 21
168.3008206121
 31
0.0
  0
LINE
  5
CD
  8
0
  6
CONTINUOUS
 62
     7
 10
138.0911729152
 20
168.3008206121
 30
0.0
 11
139.2911708768
 21
168.3008206121
 31
0.0
  0
LINE
  5
CE
  8
0
  6
CONTINUOUS
 62
     7
 10
139.2911708768
 20
148.3008210592
 30
0.0
 11
139.2911708768
 21
154.3008220426
 31
0.0
  0
LINE
  5
CF
  8
0
  6
CONTINUOUS
 62
     7
 10
139.2911708768
 20
154.3008220426
 30
0.0
 11
138.0911729152
 21
154.3008220426
 31
0.0
  0
LINE
  5
D0
  8
0
  6
CONTINUOUS
 62
     7
 10
138.0911729152
 20
154.3008220426
 30
0.0
 11
138.0911729152
 21
148.3008210592
 31
0.0
  0
LINE
  5
D1
  8
0
  6
CONTINUOUS
 62
     7
 10
138.0911729152
 20
148.3008210592
 30
0.0
 11
139.2911708768
 21
148.3008210592
 31
0.0
  0
LINE
  5
D2
  8
0
  6
CONTINUOUS
 62
     7
 10
139.2911708768
 20
128.3008215062
 30
0.0
 11
139.2911708768
 21
134.3008224897
 31
0.0
  0
LINE
  5
D3
  8
0
  6
CONTINUOUS
 62
     7
 10
139.2911708768
 20
134.3008224897
 30
0.0
 11
138.0911729152
 21
134.3008224897
 31
0.0
  0
LINE
  5
D4
  8
0
  6
CONTINUOUS
 62
     7
 10
138.0911729152
 20
134.3008224897
 30
0.0
 11
138.0911729152
 21
128.3008215062
 31
0.0
  0
LINE
  5
D5
  8
0
  6
CONTINUOUS
 62
     7
 10
138.0911729152
 20
128.3008215062
 30
0.0
 11
139.2911708768
 21
128.3008215062
 31
0.0
  0
LINE
  5
D6
  8
0
  6
CONTINUOUS
 62
     7
 10
139.2911708768
 20
108.3008224189
 30
0.0
 11
139.2911708768
 21
114.3008220054
 31
0.0
  0
LINE
  5
D7
  8
0
  6
CONTINUOUS
 62
     7
 10
139.2911708768
 20
114.3008220054
 30
0.0
 11
138.0911729152
 21
114.3008220054
 31
0.0
  0
LINE
  5
D8
  8
0
  6
CONTINUOUS
 62
     7
 10
138.0911729152
 20
114.3008220054
 30
0.0
 11
138.0911729152
 21
108.3008224189
 31
0.0
  0
LINE
  5
D9
  8
0
  6
CONTINUOUS
 62
     7
 10
138.0911729152
 20
108.3008224189
 30
0.0
 11
139.2911708768
 21
108.3008224189
 31
0.0
  0
LINE
  5
DA
  8
0
  6
CONTINUOUS
 62
     7
 10
139.2911708768
 20
88.3008224003
 30
0.0
 11
139.2911708768
 21
94.3008224524
 31
0.0
  0
LINE
  5
DB
  8
0
  6
CONTINUOUS
 62
     7
 10
139.2911708768
 20
94.3008224524
 30
0.0
 11
138.0911729152
 21
94.3008224524
 31
0.0
  0
LINE
  5
DC
  8
0
  6
CONTINUOUS
 62
     7
 10
138.0911729152
 20
94.3008224524
 30
0.0
 11
138.0911729152
 21
88.3008224003
 31
0.0
  0
LINE
  5
DD
  8
0
  6
CONTINUOUS
 62
     7
 10
138.0911729152
 20
88.3008224003
 30
0.0
 11
139.2911708768
 21
88.3008224003
 31
0.0
  0
LINE
  5
DE
  8
0
  6
CONTINUOUS
 62
     7
 10
139.2911708768
 20
68.3008228473
 30
0.0
 11
139.2911708768
 21
74.3008219681
 31
0.0
  0
LINE
  5
DF
  8
0
  6
CONTINUOUS
 62
     7
 10
139.2911708768
 20
74.3008219681
 30
0.0
 11
138.0911729152
 21
74.3008219681
 31
0.0
  0
LINE
  5
E0
  8
0
  6
CONTINUOUS
 62
     7
 10
138.0911729152
 20
74.3008219681
 30
0.0
 11
138.0911729152
 21
68.3008228473
 31
0.0
  0
LINE
  5
E1
  8
0
  6
CONTINUOUS
 62
     7
 10
138.0911729152
 20
68.3008228473
 30
0.0
 11
139.2911708768
 21
68.3008228473
 31
0.0
  0
LINE
  5
E2
  8
0
  6
CONTINUOUS
 62
     7
 10
139.2911708768
 20
28.3008200161
 30
0.0
 11
139.2911708768
 21
34.3008247248
 31
0.0
  0
LINE
  5
E3
  8
0
  6
CONTINUOUS
 62
     7
 10
139.2911708768
 20
34.3008247248
 30
0.0
 11
138.0911729152
 21
34.3008247248
 31
0.0
  0
LINE
  5
E4
  8
0
  6
CONTINUOUS
 62
     7
 10
138.0911729152
 20
34.3008247248
 30
0.0
 11
138.0911729152
 21
28.3008200161
 31
0.0
  0
LINE
  5
E5
  8
0
  6
CONTINUOUS
 62
     7
 10
138.0911729152
 20
28.3008200161
 30
0.0
 11
139.2911708768
 21
28.3008200161
 31
0.0
  0
LINE
  5
E6
  8
0
  6
CONTINUOUS
 62
     7
 10
139.2911708768
 20
48.3008232943
 30
0.0
 11
139.2911708768
 21
54.3008205525
 31
0.0
  0
LINE
  5
E7
  8
0
  6
CONTINUOUS
 62
     7
 10
139.2911708768
 20
54.3008205525
 30
0.0
 11
138.0911729152
 21
54.3008205525
 31
0.0
  0
LINE
  5
E8
  8
0
  6
CONTINUOUS
 62
     7
 10
138.0911729152
 20
54.3008205525
 30
0.0
 11
138.0911729152
 21
48.3008232943
 31
0.0
  0
LINE
  5
E9
  8
0
  6
CONTINUOUS
 62
     7
 10
138.0911729152
 20
48.3008232943
 30
0.0
 11
139.2911708768
 21
48.3008232943
 31
0.0
  0
LINE
  5
EA
  8
0
  6
CONTINUOUS
 62
     7
 10
137.1911725815
 20
16.1008221142
 30
0.0
 11
137.1911725815
 21
11.1008194319
 31
0.0
  0
LINE
  5
EB
  8
0
  6
CONTINUOUS
 62
     7
 10
136.1911705549
 20
186.5008232228
 30
0.0
 11
136.1911705549
 21
16.1008221142
 31
0.0
  0
LINE
  5
EC
  8
0
  6
CONTINUOUS
 62
     7
 10
137.1911725815
 20
186.5008232228
 30
0.0
 11
136.1911705549
 21
186.5008232228
 31
0.0
  0
LINE
  5
ED
  8
0
  6
CONTINUOUS
 62
     7
 10
137.1911725815
 20
191.500825905
 30
0.0
 11
137.1911725815
 21
186.5008232228
 31
0.0
  0
LINE
  5
EE
  8
0
  6
CONTINUOUS
 62
     7
 10
138.440769058
 20
191.500825905
 30
0.0
 11
137.1911725815
 21
191.500825905
 31
0.0
  0
LINE
  5
EF
  8
0
  6
CONTINUOUS
 62
     7
 10
140.1911712105
 20
191.500825905
 30
0.0
 11
138.941574734
 21
191.500825905
 31
0.0
  0
LINE
  5
F0
  8
0
  6
CONTINUOUS
 62
     7
 10
140.1911712105
 20
186.5008232228
 30
0.0
 11
140.1911712105
 21
191.500825905
 31
0.0
  0
LINE
  5
F1
  8
0
  6
CONTINUOUS
 62
     7
 10
141.1911732371
 20
186.5008232228
 30
0.0
 11
140.1911712105
 21
186.5008232228
 31
0.0
  0
LINE
  5
F2
  8
0
  6
CONTINUOUS
 62
     7
 10
141.1911732371
 20
16.1008221142
 30
0.0
 11
141.1911732371
 21
186.5008232228
 31
0.0
  0
LINE
  5
F3
  8
0
  6
CONTINUOUS
 62
     7
 10
140.1911712105
 20
16.1008221142
 30
0.0
 11
141.1911732371
 21
16.1008221142
 31
0.0
  0
LINE
  5
F4
  8
0
  6
CONTINUOUS
 62
     7
 10
140.1911712105
 20
11.1008194319
 30
0.0
 11
140.1911712105
 21
16.1008221142
 31
0.0
  0
LINE
  5
F5
  8
0
  6
CONTINUOUS
 62
     7
 10
138.941574734
 20
11.1008194319
 30
0.0
 11
140.1911712105
 21
11.1008194319
 31
0.0
  0
LINE
  5
F6
  8
0
  6
CONTINUOUS
 62
     7
 10
137.1911725815
 20
11.1008194319
 30
0.0
 11
138.440769058
 21
11.1008194319
 31
0.0
  0
LINE
  5
F7
  8
0
  6
CONTINUOUS
 62
     7
 10
136.1911705549
 20
16.1008221142
 30
0.0
 11
137.1911725815
 21
16.1008221142
 31
0.0
  0
LINE
  5
F8
  8
0
  6
CONTINUOUS
 62
     7
 10
183.2911743636
 20
168.3008206121
 30
0.0
 11
183.2911743636
 21
174.3008253209
 31
0.0
  0
LINE
  5
F9
  8
0
  6
CONTINUOUS
 62
     7
 10
183.2911743636
 20
174.3008253209
 30
0.0
 11
182.0911689515
 21
174.3008253209
 31
0.0
  0
LINE
  5
FA
  8
0
  6
CONTINUOUS
 62
     7
 10
182.0911689515
 20
174.3008253209
 30
0.0
 11
182.0911689515
 21
168.3008206121
 31
0.0
  0
LINE
  5
FB
  8
0
  6
CONTINUOUS
 62
     7
 10
182.0911689515
 20
168.3008206121
 30
0.0
 11
183.2911743636
 21
168.3008206121
 31
0.0
  0
LINE
  5
FC
  8
0
  6
CONTINUOUS
 62
     7
 10
183.2911743636
 20
148.3008210592
 30
0.0
 11
183.2911743636
 21
154.3008220426
 31
0.0
  0
LINE
  5
FD
  8
0
  6
CONTINUOUS
 62
     7
 10
183.2911743636
 20
154.3008220426
 30
0.0
 11
182.0911689515
 21
154.3008220426
 31
0.0
  0
LINE
  5
FE
  8
0
  6
CONTINUOUS
 62
     7
 10
182.0911689515
 20
154.3008220426
 30
0.0
 11
182.0911689515
 21
148.3008210592
 31
0.0
  0
LINE
  5
FF
  8
0
  6
CONTINUOUS
 62
     7
 10
182.0911689515
 20
148.3008210592
 30
0.0
 11
183.2911743636
 21
148.3008210592
 31
0.0
  0
LINE
  5
100
  8
0
  6
CONTINUOUS
 62
     7
 10
183.2911743636
 20
128.3008215062
 30
0.0
 11
183.2911743636
 21
134.3008224897
 31
0.0
  0
LINE
  5
101
  8
0
  6
CONTINUOUS
 62
     7
 10
183.2911743636
 20
134.3008224897
 30
0.0
 11
182.0911689515
 21
134.3008224897
 31
0.0
  0
LINE
  5
102
  8
0
  6
CONTINUOUS
 62
     7
 10
182.0911689515
 20
134.3008224897
 30
0.0
 11
182.0911689515
 21
128.3008215062
 31
0.0
  0
LINE
  5
103
  8
0
  6
CONTINUOUS
 62
     7
 10
182.0911689515
 20
128.3008215062
 30
0.0
 11
183.2911743636
 21
128.3008215062
 31
0.0
  0
LINE
  5
104
  8
0
  6
CONTINUOUS
 62
     7
 10
183.2911743636
 20
108.3008224189
 30
0.0
 11
183.2911743636
 21
114.3008220054
 31
0.0
  0
LINE
  5
105
  8
0
  6
CONTINUOUS
 62
     7
 10
183.2911743636
 20
114.3008220054
 30
0.0
 11
182.0911689515
 21
114.3008220054
 31
0.0
  0
LINE
  5
106
  8
0
  6
CONTINUOUS
 62
     7
 10
182.0911689515
 20
114.3008220054
 30
0.0
 11
182.0911689515
 21
108.3008224189
 31
0.0
  0
LINE
  5
107
  8
0
  6
CONTINUOUS
 62
     7
 10
182.0911689515
 20
108.3008224189
 30
0.0
 11
183.2911743636
 21
108.3008224189
 31
0.0
  0
LINE
  5
108
  8
0
  6
CONTINUOUS
 62
     7
 10
183.2911743636
 20
88.3008224003
 30
0.0
 11
183.2911743636
 21
94.3008224524
 31
0.0
  0
LINE
  5
109
  8
0
  6
CONTINUOUS
 62
     7
 10
183.2911743636
 20
94.3008224524
 30
0.0
 11
182.0911689515
 21
94.3008224524
 31
0.0
  0
LINE
  5
10A
  8
0
  6
CONTINUOUS
 62
     7
 10
182.0911689515
 20
94.3008224524
 30
0.0
 11
182.0911689515
 21
88.3008224003
 31
0.0
  0
LINE
  5
10B
  8
0
  6
CONTINUOUS
 62
     7
 10
182.0911689515
 20
88.3008224003
 30
0.0
 11
183.2911743636
 21
88.3008224003
 31
0.0
  0
LINE
  5
10C
  8
0
  6
CONTINUOUS
 62
     7
 10
183.2911743636
 20
68.3008228473
 30
0.0
 11
183.2911743636
 21
74.3008219681
 31
0.0
  0
LINE
  5
10D
  8
0
  6
CONTINUOUS
 62
     7
 10
183.2911743636
 20
74.3008219681
 30
0.0
 11
182.0911689515
 21
74.3008219681
 31
0.0
  0
LINE
  5
10E
  8
0
  6
CONTINUOUS
 62
     7
 10
182.0911689515
 20
74.3008219681
 30
0.0
 11
182.0911689515
 21
68.3008228473
 31
0.0
  0
LINE
  5
10F
  8
0
  6
CONTINUOUS
 62
     7
 10
182.0911689515
 20
68.3008228473
 30
0.0
 11
183.2911743636
 21
68.3008228473
 31
0.0
  0
LINE
  5
110
  8
0
  6
CONTINUOUS
 62
     7
 10
183.2911743636
 20
28.3008200161
 30
0.0
 11
183.2911743636
 21
34.3008247248
 31
0.0
  0
LINE
  5
111
  8
0
  6
CONTINUOUS
 62
     7
 10
183.2911743636
 20
34.3008247248
 30
0.0
 11
182.0911689515
 21
34.3008247248
 31
0.0
  0
LINE
  5
112
  8
0
  6
CONTINUOUS
 62
     7
 10
182.0911689515
 20
34.3008247248
 30
0.0
 11
182.0911689515
 21
28.3008200161
 31
0.0
  0
LINE
  5
113
  8
0
  6
CONTINUOUS
 62
     7
 10
182.0911689515
 20
28.3008200161
 30
0.0
 11
183.2911743636
 21
28.3008200161
 31
0.0
  0
LINE
  5
114
  8
0
  6
CONTINUOUS
 62
     7
 10
183.2911743636
 20
48.3008232943
 30
0.0
 11
183.2911743636
 21
54.3008205525
 31
0.0
  0
LINE
  5
115
  8
0
  6
CONTINUOUS
 62
     7
 10
183.2911743636
 20
54.3008205525
 30
0.0
 11
182.0911689515
 21
54.3008205525
 31
0.0
  0
LINE
  5
116
  8
0
  6
CONTINUOUS
 62
     7
 10
182.0911689515
 20
54.3008205525
 30
0.0
 11
182.0911689515
 21
48.3008232943
 31
0.0
  0
LINE
  5
117
  8
0
  6
CONTINUOUS
 62
     7
 10
182.0911689515
 20
48.3008232943
 30
0.0
 11
183.2911743636
 21
48.3008232943
 31
0.0
  0
LINE
  5
118
  8
0
  6
CONTINUOUS
 62
     7
 10
181.1911686177
 20
16.1008221142
 30
0.0
 11
181.1911686177
 21
11.1008194319
 31
0.0
  0
LINE
  5
119
  8
0
  6
CONTINUOUS
 62
     7
 10
180.1911740418
 20
186.5008232228
 30
0.0
 11
180.1911740418
 21
16.1008221142
 31
0.0
  0
LINE
  5
11A
  8
0
  6
CONTINUOUS
 62
     7
 10
181.1911686177
 20
191.500825905
 30
0.0
 11
181.1911686177
 21
186.5008232228
 31
0.0
  0
LINE
  5
11B
  8
0
  6
CONTINUOUS
 62
     7
 10
182.4407650943
 20
191.500825905
 30
0.0
 11
181.1911686177
 21
191.500825905
 31
0.0
  0
LINE
  5
11C
  8
0
  6
CONTINUOUS
 62
     7
 10
184.1911746974
 20
191.500825905
 30
0.0
 11
182.9415782209
 21
191.500825905
 31
0.0
  0
LINE
  5
11D
  8
0
  6
CONTINUOUS
 62
     7
 10
184.1911746974
 20
186.5008232228
 30
0.0
 11
184.1911746974
 21
191.500825905
 31
0.0
  0
LINE
  5
11E
  8
0
  6
CONTINUOUS
 62
     7
 10
185.1911692734
 20
16.1008221142
 30
0.0
 11
185.1911692734
 21
186.5008232228
 31
0.0
  0
LINE
  5
11F
  8
0
  6
CONTINUOUS
 62
     7
 10
184.1911746974
 20
11.1008194319
 30
0.0
 11
184.1911746974
 21
16.1008221142
 31
0.0
  0
LINE
  5
120
  8
0
  6
CONTINUOUS
 62
     7
 10
182.9415782209
 20
11.1008194319
 30
0.0
 11
184.1911746974
 21
11.1008194319
 31
0.0
  0
LINE
  5
121
  8
0
  6
CONTINUOUS
 62
     7
 10
181.1911686177
 20
11.1008194319
 30
0.0
 11
182.4407650943
 21
11.1008194319
 31
0.0
  0
LINE
  5
122
  8
0
  6
CONTINUOUS
 62
     7
 10
181.1911686177
 20
186.5008232228
 30
0.0
 11
180.1911740418
 21
186.5008232228
 31
0.0
  0
LINE
  5
123
  8
0
  6
CONTINUOUS
 62
     7
 10
180.1911740418
 20
16.1008221142
 30
0.0
 11
181.1911686177
 21
16.1008221142
 31
0.0
  0
LINE
  5
124
  8
0
  6
CONTINUOUS
 62
     7
 10
185.1911692734
 20
186.5008232228
 30
0.0
 11
184.1911746974
 21
186.5008232228
 31
0.0
  0
LINE
  5
125
  8
0
  6
CONTINUOUS
 62
     7
 10
184.1911746974
 20
16.1008221142
 30
0.0
 11
185.1911692734
 21
16.1008221142
 31
0.0
  0
LINE
  5
126
  8
0
  6
CONTINUOUS
 62
     7
 10
172.2911744232
 20
168.3008206121
 30
0.0
 11
172.2911744232
 21
174.3008253209
 31
0.0
  0
LINE
  5
127
  8
0
  6
CONTINUOUS
 62
     7
 10
172.2911744232
 20
174.3008253209
 30
0.0
 11
171.0911690111
 21
174.3008253209
 31
0.0
  0
LINE
  5
128
  8
0
  6
CONTINUOUS
 62
     7
 10
171.0911690111
 20
174.3008253209
 30
0.0
 11
171.0911690111
 21
168.3008206121
 31
0.0
  0
LINE
  5
129
  8
0
  6
CONTINUOUS
 62
     7
 10
171.0911690111
 20
168.3008206121
 30
0.0
 11
172.2911744232
 21
168.3008206121
 31
0.0
  0
LINE
  5
12A
  8
0
  6
CONTINUOUS
 62
     7
 10
172.2911744232
 20
148.3008210592
 30
0.0
 11
172.2911744232
 21
154.3008220426
 31
0.0
  0
LINE
  5
12B
  8
0
  6
CONTINUOUS
 62
     7
 10
172.2911744232
 20
154.3008220426
 30
0.0
 11
171.0911690111
 21
154.3008220426
 31
0.0
  0
LINE
  5
12C
  8
0
  6
CONTINUOUS
 62
     7
 10
171.0911690111
 20
154.3008220426
 30
0.0
 11
171.0911690111
 21
148.3008210592
 31
0.0
  0
LINE
  5
12D
  8
0
  6
CONTINUOUS
 62
     7
 10
171.0911690111
 20
148.3008210592
 30
0.0
 11
172.2911744232
 21
148.3008210592
 31
0.0
  0
LINE
  5
12E
  8
0
  6
CONTINUOUS
 62
     7
 10
172.2911744232
 20
128.3008215062
 30
0.0
 11
172.2911744232
 21
134.3008224897
 31
0.0
  0
LINE
  5
12F
  8
0
  6
CONTINUOUS
 62
     7
 10
172.2911744232
 20
134.3008224897
 30
0.0
 11
171.0911690111
 21
134.3008224897
 31
0.0
  0
LINE
  5
130
  8
0
  6
CONTINUOUS
 62
     7
 10
171.0911690111
 20
134.3008224897
 30
0.0
 11
171.0911690111
 21
128.3008215062
 31
0.0
  0
LINE
  5
131
  8
0
  6
CONTINUOUS
 62
     7
 10
171.0911690111
 20
128.3008215062
 30
0.0
 11
172.2911744232
 21
128.3008215062
 31
0.0
  0
LINE
  5
132
  8
0
  6
CONTINUOUS
 62
     7
 10
172.2911744232
 20
108.3008224189
 30
0.0
 11
172.2911744232
 21
114.3008220054
 31
0.0
  0
LINE
  5
133
  8
0
  6
CONTINUOUS
 62
     7
 10
172.2911744232
 20
114.3008220054
 30
0.0
 11
171.0911690111
 21
114.3008220054
 31
0.0
  0
LINE
  5
134
  8
0
  6
CONTINUOUS
 62
     7
 10
171.0911690111
 20
114.3008220054
 30
0.0
 11
171.0911690111
 21
108.3008224189
 31
0.0
  0
LINE
  5
135
  8
0
  6
CONTINUOUS
 62
     7
 10
171.0911690111
 20
108.3008224189
 30
0.0
 11
172.2911744232
 21
108.3008224189
 31
0.0
  0
LINE
  5
136
  8
0
  6
CONTINUOUS
 62
     7
 10
172.2911744232
 20
88.3008224003
 30
0.0
 11
172.2911744232
 21
94.3008224524
 31
0.0
  0
LINE
  5
137
  8
0
  6
CONTINUOUS
 62
     7
 10
172.2911744232
 20
94.3008224524
 30
0.0
 11
171.0911690111
 21
94.3008224524
 31
0.0
  0
LINE
  5
138
  8
0
  6
CONTINUOUS
 62
     7
 10
171.0911690111
 20
94.3008224524
 30
0.0
 11
171.0911690111
 21
88.3008224003
 31
0.0
  0
LINE
  5
139
  8
0
  6
CONTINUOUS
 62
     7
 10
171.0911690111
 20
88.3008224003
 30
0.0
 11
172.2911744232
 21
88.3008224003
 31
0.0
  0
LINE
  5
13A
  8
0
  6
CONTINUOUS
 62
     7
 10
172.2911744232
 20
68.3008228473
 30
0.0
 11
172.2911744232
 21
74.3008219681
 31
0.0
  0
LINE
  5
13B
  8
0
  6
CONTINUOUS
 62
     7
 10
172.2911744232
 20
74.3008219681
 30
0.0
 11
171.0911690111
 21
74.3008219681
 31
0.0
  0
LINE
  5
13C
  8
0
  6
CONTINUOUS
 62
     7
 10
171.0911690111
 20
74.3008219681
 30
0.0
 11
171.0911690111
 21
68.3008228473
 31
0.0
  0
LINE
  5
13D
  8
0
  6
CONTINUOUS
 62
     7
 10
171.0911690111
 20
68.3008228473
 30
0.0
 11
172.2911744232
 21
68.3008228473
 31
0.0
  0
LINE
  5
13E
  8
0
  6
CONTINUOUS
 62
     7
 10
172.2911744232
 20
28.3008200161
 30
0.0
 11
172.2911744232
 21
34.3008247248
 31
0.0
  0
LINE
  5
13F
  8
0
  6
CONTINUOUS
 62
     7
 10
172.2911744232
 20
34.3008247248
 30
0.0
 11
171.0911690111
 21
34.3008247248
 31
0.0
  0
LINE
  5
140
  8
0
  6
CONTINUOUS
 62
     7
 10
171.0911690111
 20
34.3008247248
 30
0.0
 11
171.0911690111
 21
28.3008200161
 31
0.0
  0
LINE
  5
141
  8
0
  6
CONTINUOUS
 62
     7
 10
171.0911690111
 20
28.3008200161
 30
0.0
 11
172.2911744232
 21
28.3008200161
 31
0.0
  0
LINE
  5
142
  8
0
  6
CONTINUOUS
 62
     7
 10
172.2911744232
 20
48.3008232943
 30
0.0
 11
172.2911744232
 21
54.3008205525
 31
0.0
  0
LINE
  5
143
  8
0
  6
CONTINUOUS
 62
     7
 10
172.2911744232
 20
54.3008205525
 30
0.0
 11
171.0911690111
 21
54.3008205525
 31
0.0
  0
LINE
  5
144
  8
0
  6
CONTINUOUS
 62
     7
 10
171.0911690111
 20
54.3008205525
 30
0.0
 11
171.0911690111
 21
48.3008232943
 31
0.0
  0
LINE
  5
145
  8
0
  6
CONTINUOUS
 62
     7
 10
171.0911690111
 20
48.3008232943
 30
0.0
 11
172.2911744232
 21
48.3008232943
 31
0.0
  0
LINE
  5
146
  8
0
  6
CONTINUOUS
 62
     7
 10
170.1911686774
 20
16.1008221142
 30
0.0
 11
170.1911686774
 21
11.1008194319
 31
0.0
  0
LINE
  5
147
  8
0
  6
CONTINUOUS
 62
     7
 10
169.1911741014
 20
186.5008232228
 30
0.0
 11
169.1911741014
 21
16.1008221142
 31
0.0
  0
LINE
  5
148
  8
0
  6
CONTINUOUS
 62
     7
 10
170.1911686774
 20
191.500825905
 30
0.0
 11
170.1911686774
 21
186.5008232228
 31
0.0
  0
LINE
  5
149
  8
0
  6
CONTINUOUS
 62
     7
 10
171.4407651539
 20
191.500825905
 30
0.0
 11
170.1911686774
 21
191.500825905
 31
0.0
  0
LINE
  5
14A
  8
0
  6
CONTINUOUS
 62
     7
 10
173.191174757
 20
191.500825905
 30
0.0
 11
171.9415782805
 21
191.500825905
 31
0.0
  0
LINE
  5
14B
  8
0
  6
CONTINUOUS
 62
     7
 10
173.191174757
 20
186.5008232228
 30
0.0
 11
173.191174757
 21
191.500825905
 31
0.0
  0
LINE
  5
14C
  8
0
  6
CONTINUOUS
 62
     7
 10
174.191169333
 20
186.5008232228
 30
0.0
 11
173.191174757
 21
186.5008232228
 31
0.0
  0
LINE
  5
14D
  8
0
  6
CONTINUOUS
 62
     7
 10
174.191169333
 20
16.1008221142
 30
0.0
 11
174.191169333
 21
186.5008232228
 31
0.0
  0
LINE
  5
14E
  8
0
  6
CONTINUOUS
 62
     7
 10
173.191174757
 20
16.1008221142
 30
0.0
 11
174.191169333
 21
16.1008221142
 31
0.0
  0
LINE
  5
14F
  8
0
  6
CONTINUOUS
 62
     7
 10
173.191174757
 20
11.1008194319
 30
0.0
 11
173.191174757
 21
16.1008221142
 31
0.0
  0
LINE
  5
150
  8
0
  6
CONTINUOUS
 62
     7
 10
171.9415782805
 20
11.1008194319
 30
0.0
 11
173.191174757
 21
11.1008194319
 31
0.0
  0
LINE
  5
151
  8
0
  6
CONTINUOUS
 62
     7
 10
170.1911686774
 20
11.1008194319
 30
0.0
 11
171.4407651539
 21
11.1008194319
 31
0.0
  0
LINE
  5
152
  8
0
  6
CONTINUOUS
 62
     7
 10
170.1911686774
 20
186.5008232228
 30
0.0
 11
169.1911741014
 21
186.5008232228
 31
0.0
  0
LINE
  5
153
  8
0
  6
CONTINUOUS
 62
     7
 10
169.1911741014
 20
16.1008221142
 30
0.0
 11
170.1911686774
 21
16.1008221142
 31
0.0
  0
LINE
  5
154
  8
0
  6
CONTINUOUS
 62
     7
 10
161.2911744828
 20
168.3008206121
 30
0.0
 11
161.2911744828
 21
174.3008253209
 31
0.0
  0
LINE
  5
155
  8
0
  6
CONTINUOUS
 62
     7
 10
161.2911744828
 20
174.3008253209
 30
0.0
 11
160.0911690707
 21
174.3008253209
 31
0.0
  0
LINE
  5
156
  8
0
  6
CONTINUOUS
 62
     7
 10
160.0911690707
 20
174.3008253209
 30
0.0
 11
160.0911690707
 21
168.3008206121
 31
0.0
  0
LINE
  5
157
  8
0
  6
CONTINUOUS
 62
     7
 10
160.0911690707
 20
168.3008206121
 30
0.0
 11
161.2911744828
 21
168.3008206121
 31
0.0
  0
LINE
  5
158
  8
0
  6
CONTINUOUS
 62
     7
 10
161.2911744828
 20
148.3008210592
 30
0.0
 11
161.2911744828
 21
154.3008220426
 31
0.0
  0
LINE
  5
159
  8
0
  6
CONTINUOUS
 62
     7
 10
161.2911744828
 20
154.3008220426
 30
0.0
 11
160.0911690707
 21
154.3008220426
 31
0.0
  0
LINE
  5
15A
  8
0
  6
CONTINUOUS
 62
     7
 10
160.0911690707
 20
154.3008220426
 30
0.0
 11
160.0911690707
 21
148.3008210592
 31
0.0
  0
LINE
  5
15B
  8
0
  6
CONTINUOUS
 62
     7
 10
160.0911690707
 20
148.3008210592
 30
0.0
 11
161.2911744828
 21
148.3008210592
 31
0.0
  0
LINE
  5
15C
  8
0
  6
CONTINUOUS
 62
     7
 10
161.2911744828
 20
128.3008215062
 30
0.0
 11
161.2911744828
 21
134.3008224897
 31
0.0
  0
LINE
  5
15D
  8
0
  6
CONTINUOUS
 62
     7
 10
161.2911744828
 20
134.3008224897
 30
0.0
 11
160.0911690707
 21
134.3008224897
 31
0.0
  0
LINE
  5
15E
  8
0
  6
CONTINUOUS
 62
     7
 10
160.0911690707
 20
134.3008224897
 30
0.0
 11
160.0911690707
 21
128.3008215062
 31
0.0
  0
LINE
  5
15F
  8
0
  6
CONTINUOUS
 62
     7
 10
160.0911690707
 20
128.3008215062
 30
0.0
 11
161.2911744828
 21
128.3008215062
 31
0.0
  0
LINE
  5
160
  8
0
  6
CONTINUOUS
 62
     7
 10
161.2911744828
 20
108.3008224189
 30
0.0
 11
161.2911744828
 21
114.3008220054
 31
0.0
  0
LINE
  5
161
  8
0
  6
CONTINUOUS
 62
     7
 10
161.2911744828
 20
114.3008220054
 30
0.0
 11
160.0911690707
 21
114.3008220054
 31
0.0
  0
LINE
  5
162
  8
0
  6
CONTINUOUS
 62
     7
 10
160.0911690707
 20
114.3008220054
 30
0.0
 11
160.0911690707
 21
108.3008224189
 31
0.0
  0
LINE
  5
163
  8
0
  6
CONTINUOUS
 62
     7
 10
160.0911690707
 20
108.3008224189
 30
0.0
 11
161.2911744828
 21
108.3008224189
 31
0.0
  0
LINE
  5
164
  8
0
  6
CONTINUOUS
 62
     7
 10
161.2911744828
 20
88.3008224003
 30
0.0
 11
161.2911744828
 21
94.3008224524
 31
0.0
  0
LINE
  5
165
  8
0
  6
CONTINUOUS
 62
     7
 10
161.2911744828
 20
94.3008224524
 30
0.0
 11
160.0911690707
 21
94.3008224524
 31
0.0
  0
LINE
  5
166
  8
0
  6
CONTINUOUS
 62
     7
 10
160.0911690707
 20
94.3008224524
 30
0.0
 11
160.0911690707
 21
88.3008224003
 31
0.0
  0
LINE
  5
167
  8
0
  6
CONTINUOUS
 62
     7
 10
160.0911690707
 20
88.3008224003
 30
0.0
 11
161.2911744828
 21
88.3008224003
 31
0.0
  0
LINE
  5
168
  8
0
  6
CONTINUOUS
 62
     7
 10
161.2911744828
 20
68.3008228473
 30
0.0
 11
161.2911744828
 21
74.3008219681
 31
0.0
  0
LINE
  5
169
  8
0
  6
CONTINUOUS
 62
     7
 10
161.2911744828
 20
74.3008219681
 30
0.0
 11
160.0911690707
 21
74.3008219681
 31
0.0
  0
LINE
  5
16A
  8
0
  6
CONTINUOUS
 62
     7
 10
160.0911690707
 20
74.3008219681
 30
0.0
 11
160.0911690707
 21
68.3008228473
 31
0.0
  0
LINE
  5
16B
  8
0
  6
CONTINUOUS
 62
     7
 10
160.0911690707
 20
68.3008228473
 30
0.0
 11
161.2911744828
 21
68.3008228473
 31
0.0
  0
LINE
  5
16C
  8
0
  6
CONTINUOUS
 62
     7
 10
161.2911744828
 20
28.3008200161
 30
0.0
 11
161.2911744828
 21
34.3008247248
 31
0.0
  0
LINE
  5
16D
  8
0
  6
CONTINUOUS
 62
     7
 10
161.2911744828
 20
34.3008247248
 30
0.0
 11
160.0911690707
 21
34.3008247248
 31
0.0
  0
LINE
  5
16E
  8
0
  6
CONTINUOUS
 62
     7
 10
160.0911690707
 20
34.3008247248
 30
0.0
 11
160.0911690707
 21
28.3008200161
 31
0.0
  0
LINE
  5
16F
  8
0
  6
CONTINUOUS
 62
     7
 10
160.0911690707
 20
28.3008200161
 30
0.0
 11
161.2911744828
 21
28.3008200161
 31
0.0
  0
LINE
  5
170
  8
0
  6
CONTINUOUS
 62
     7
 10
161.2911744828
 20
48.3008232943
 30
0.0
 11
161.2911744828
 21
54.3008205525
 31
0.0
  0
LINE
  5
171
  8
0
  6
CONTINUOUS
 62
     7
 10
161.2911744828
 20
54.3008205525
 30
0.0
 11
160.0911690707
 21
54.3008205525
 31
0.0
  0
LINE
  5
172
  8
0
  6
CONTINUOUS
 62
     7
 10
160.0911690707
 20
54.3008205525
 30
0.0
 11
160.0911690707
 21
48.3008232943
 31
0.0
  0
LINE
  5
173
  8
0
  6
CONTINUOUS
 62
     7
 10
160.0911690707
 20
48.3008232943
 30
0.0
 11
161.2911744828
 21
48.3008232943
 31
0.0
  0
LINE
  5
174
  8
0
  6
CONTINUOUS
 62
     7
 10
158.191174161
 20
186.5008232228
 30
0.0
 11
158.191174161
 21
16.1008221142
 31
0.0
  0
LINE
  5
175
  8
0
  6
CONTINUOUS
 62
     7
 10
159.191168737
 20
191.500825905
 30
0.0
 11
159.191168737
 21
186.5008232228
 31
0.0
  0
LINE
  5
176
  8
0
  6
CONTINUOUS
 62
     7
 10
160.4407652135
 20
191.500825905
 30
0.0
 11
159.191168737
 21
191.500825905
 31
0.0
  0
LINE
  5
177
  8
0
  6
CONTINUOUS
 62
     7
 10
162.1911748166
 20
191.500825905
 30
0.0
 11
160.9415783401
 21
191.500825905
 31
0.0
  0
LINE
  5
178
  8
0
  6
CONTINUOUS
 62
     7
 10
163.1911693926
 20
16.1008221142
 30
0.0
 11
163.1911693926
 21
186.5008232228
 31
0.0
  0
LINE
  5
179
  8
0
  6
CONTINUOUS
 62
     7
 10
160.9415783401
 20
11.1008194319
 30
0.0
 11
162.1911748166
 21
11.1008194319
 31
0.0
  0
LINE
  5
17A
  8
0
  6
CONTINUOUS
 62
     7
 10
159.191168737
 20
11.1008194319
 30
0.0
 11
160.4407652135
 21
11.1008194319
 31
0.0
  0
LINE
  5
17B
  8
0
  6
CONTINUOUS
 62
     7
 10
159.191168737
 20
186.5008232228
 30
0.0
 11
158.191174161
 21
186.5008232228
 31
0.0
  0
LINE
  5
17C
  8
0
  6
CONTINUOUS
 62
     7
 10
163.1911693926
 20
186.5008232228
 30
0.0
 11
162.1911748166
 21
186.5008232228
 31
0.0
  0
LINE
  5
17D
  8
0
  6
CONTINUOUS
 62
     7
 10
162.1911748166
 20
16.1008221142
 30
0.0
 11
163.1911693926
 21
16.1008221142
 31
0.0
  0
LINE
  5
17E
  8
0
  6
CONTINUOUS
 62
     7
 10
162.1911748166
 20
186.5008232228
 30
0.0
 11
162.1911748166
 21
191.500825905
 31
0.0
  0
LINE
  5
17F
  8
0
  6
CONTINUOUS
 62
     7
 10
159.191168737
 20
16.1008221142
 30
0.0
 11
159.191168737
 21
11.1008194319
 31
0.0
  0
LINE
  5
180
  8
0
  6
CONTINUOUS
 62
     7
 10
162.1911748166
 20
11.1008194319
 30
0.0
 11
162.1911748166
 21
16.1008221142
 31
0.0
  0
LINE
  5
181
  8
0
  6
CONTINUOUS
 62
     7
 10
158.191174161
 20
16.1008221142
 30
0.0
 11
159.191168737
 21
16.1008221142
 31
0.0
  0
LINE
  5
182
  8
0
  6
CONTINUOUS
 62
     7
 10
150.2911708172
 20
168.3008206121
 30
0.0
 11
150.2911708172
 21
174.3008253209
 31
0.0
  0
LINE
  5
183
  8
0
  6
CONTINUOUS
 62
     7
 10
150.2911708172
 20
174.3008253209
 30
0.0
 11
149.0911728556
 21
174.3008253209
 31
0.0
  0
LINE
  5
184
  8
0
  6
CONTINUOUS
 62
     7
 10
149.0911728556
 20
174.3008253209
 30
0.0
 11
149.0911728556
 21
168.3008206121
 31
0.0
  0
LINE
  5
185
  8
0
  6
CONTINUOUS
 62
     7
 10
149.0911728556
 20
168.3008206121
 30
0.0
 11
150.2911708172
 21
168.3008206121
 31
0.0
  0
LINE
  5
186
  8
0
  6
CONTINUOUS
 62
     7
 10
150.2911708172
 20
148.3008210592
 30
0.0
 11
150.2911708172
 21
154.3008220426
 31
0.0
  0
LINE
  5
187
  8
0
  6
CONTINUOUS
 62
     7
 10
150.2911708172
 20
154.3008220426
 30
0.0
 11
149.0911728556
 21
154.3008220426
 31
0.0
  0
LINE
  5
188
  8
0
  6
CONTINUOUS
 62
     7
 10
149.0911728556
 20
154.3008220426
 30
0.0
 11
149.0911728556
 21
148.3008210592
 31
0.0
  0
LINE
  5
189
  8
0
  6
CONTINUOUS
 62
     7
 10
149.0911728556
 20
148.3008210592
 30
0.0
 11
150.2911708172
 21
148.3008210592
 31
0.0
  0
LINE
  5
18A
  8
0
  6
CONTINUOUS
 62
     7
 10
150.2911708172
 20
128.3008215062
 30
0.0
 11
150.2911708172
 21
134.3008224897
 31
0.0
  0
LINE
  5
18B
  8
0
  6
CONTINUOUS
 62
     7
 10
150.2911708172
 20
134.3008224897
 30
0.0
 11
149.0911728556
 21
134.3008224897
 31
0.0
  0
LINE
  5
18C
  8
0
  6
CONTINUOUS
 62
     7
 10
149.0911728556
 20
134.3008224897
 30
0.0
 11
149.0911728556
 21
128.3008215062
 31
0.0
  0
LINE
  5
18D
  8
0
  6
CONTINUOUS
 62
     7
 10
149.0911728556
 20
128.3008215062
 30
0.0
 11
150.2911708172
 21
128.3008215062
 31
0.0
  0
LINE
  5
18E
  8
0
  6
CONTINUOUS
 62
     7
 10
150.2911708172
 20
108.3008224189
 30
0.0
 11
150.2911708172
 21
114.3008220054
 31
0.0
  0
LINE
  5
18F
  8
0
  6
CONTINUOUS
 62
     7
 10
150.2911708172
 20
114.3008220054
 30
0.0
 11
149.0911728556
 21
114.3008220054
 31
0.0
  0
LINE
  5
190
  8
0
  6
CONTINUOUS
 62
     7
 10
149.0911728556
 20
114.3008220054
 30
0.0
 11
149.0911728556
 21
108.3008224189
 31
0.0
  0
LINE
  5
191
  8
0
  6
CONTINUOUS
 62
     7
 10
149.0911728556
 20
108.3008224189
 30
0.0
 11
150.2911708172
 21
108.3008224189
 31
0.0
  0
LINE
  5
192
  8
0
  6
CONTINUOUS
 62
     7
 10
150.2911708172
 20
88.3008224003
 30
0.0
 11
150.2911708172
 21
94.3008224524
 31
0.0
  0
LINE
  5
193
  8
0
  6
CONTINUOUS
 62
     7
 10
150.2911708172
 20
94.3008224524
 30
0.0
 11
149.0911728556
 21
94.3008224524
 31
0.0
  0
LINE
  5
194
  8
0
  6
CONTINUOUS
 62
     7
 10
149.0911728556
 20
94.3008224524
 30
0.0
 11
149.0911728556
 21
88.3008224003
 31
0.0
  0
LINE
  5
195
  8
0
  6
CONTINUOUS
 62
     7
 10
149.0911728556
 20
88.3008224003
 30
0.0
 11
150.2911708172
 21
88.3008224003
 31
0.0
  0
LINE
  5
196
  8
0
  6
CONTINUOUS
 62
     7
 10
150.2911708172
 20
68.3008228473
 30
0.0
 11
150.2911708172
 21
74.3008219681
 31
0.0
  0
LINE
  5
197
  8
0
  6
CONTINUOUS
 62
     7
 10
150.2911708172
 20
74.3008219681
 30
0.0
 11
149.0911728556
 21
74.3008219681
 31
0.0
  0
LINE
  5
198
  8
0
  6
CONTINUOUS
 62
     7
 10
149.0911728556
 20
74.3008219681
 30
0.0
 11
149.0911728556
 21
68.3008228473
 31
0.0
  0
LINE
  5
199
  8
0
  6
CONTINUOUS
 62
     7
 10
149.0911728556
 20
68.3008228473
 30
0.0
 11
150.2911708172
 21
68.3008228473
 31
0.0
  0
LINE
  5
19A
  8
0
  6
CONTINUOUS
 62
     7
 10
150.2911708172
 20
28.3008200161
 30
0.0
 11
150.2911708172
 21
34.3008247248
 31
0.0
  0
LINE
  5
19B
  8
0
  6
CONTINUOUS
 62
     7
 10
150.2911708172
 20
34.3008247248
 30
0.0
 11
149.0911728556
 21
34.3008247248
 31
0.0
  0
LINE
  5
19C
  8
0
  6
CONTINUOUS
 62
     7
 10
149.0911728556
 20
34.3008247248
 30
0.0
 11
149.0911728556
 21
28.3008200161
 31
0.0
  0
LINE
  5
19D
  8
0
  6
CONTINUOUS
 62
     7
 10
149.0911728556
 20
28.3008200161
 30
0.0
 11
150.2911708172
 21
28.3008200161
 31
0.0
  0
LINE
  5
19E
  8
0
  6
CONTINUOUS
 62
     7
 10
150.2911708172
 20
48.3008232943
 30
0.0
 11
150.2911708172
 21
54.3008205525
 31
0.0
  0
LINE
  5
19F
  8
0
  6
CONTINUOUS
 62
     7
 10
150.2911708172
 20
54.3008205525
 30
0.0
 11
149.0911728556
 21
54.3008205525
 31
0.0
  0
LINE
  5
1A0
  8
0
  6
CONTINUOUS
 62
     7
 10
149.0911728556
 20
54.3008205525
 30
0.0
 11
149.0911728556
 21
48.3008232943
 31
0.0
  0
LINE
  5
1A1
  8
0
  6
CONTINUOUS
 62
     7
 10
149.0911728556
 20
48.3008232943
 30
0.0
 11
150.2911708172
 21
48.3008232943
 31
0.0
  0
LINE
  5
1A2
  8
0
  6
CONTINUOUS
 62
     7
 10
147.1911704953
 20
186.5008232228
 30
0.0
 11
147.1911704953
 21
16.1008221142
 31
0.0
  0
LINE
  5
1A3
  8
0
  6
CONTINUOUS
 62
     7
 10
148.1911725219
 20
191.500825905
 30
0.0
 11
148.1911725219
 21
186.5008232228
 31
0.0
  0
LINE
  5
1A4
  8
0
  6
CONTINUOUS
 62
     7
 10
149.4407689984
 20
191.500825905
 30
0.0
 11
148.1911725219
 21
191.500825905
 31
0.0
  0
LINE
  5
1A5
  8
0
  6
CONTINUOUS
 62
     7
 10
151.1911711509
 20
191.500825905
 30
0.0
 11
149.9415746744
 21
191.500825905
 31
0.0
  0
LINE
  5
1A6
  8
0
  6
CONTINUOUS
 62
     7
 10
152.1911731775
 20
16.1008221142
 30
0.0
 11
152.1911731775
 21
186.5008232228
 31
0.0
  0
LINE
  5
1A7
  8
0
  6
CONTINUOUS
 62
     7
 10
151.1911711509
 20
16.1008221142
 30
0.0
 11
152.1911731775
 21
16.1008221142
 31
0.0
  0
LINE
  5
1A8
  8
0
  6
CONTINUOUS
 62
     7
 10
151.1911711509
 20
11.1008194319
 30
0.0
 11
151.1911711509
 21
16.1008221142
 31
0.0
  0
LINE
  5
1A9
  8
0
  6
CONTINUOUS
 62
     7
 10
149.9415746744
 20
11.1008194319
 30
0.0
 11
151.1911711509
 21
11.1008194319
 31
0.0
  0
LINE
  5
1AA
  8
0
  6
CONTINUOUS
 62
     7
 10
148.1911725219
 20
11.1008194319
 30
0.0
 11
149.4407689984
 21
11.1008194319
 31
0.0
  0
LINE
  5
1AB
  8
0
  6
CONTINUOUS
 62
     7
 10
148.1911725219
 20
186.5008232228
 30
0.0
 11
147.1911704953
 21
186.5008232228
 31
0.0
  0
LINE
  5
1AC
  8
0
  6
CONTINUOUS
 62
     7
 10
147.1911704953
 20
16.1008221142
 30
0.0
 11
148.1911725219
 21
16.1008221142
 31
0.0
  0
LINE
  5
1AD
  8
0
  6
CONTINUOUS
 62
     7
 10
152.1911731775
 20
186.5008232228
 30
0.0
 11
151.1911711509
 21
186.5008232228
 31
0.0
  0
LINE
  5
1AE
  8
0
  6
CONTINUOUS
 62
     7
 10
151.1911711509
 20
186.5008232228
 30
0.0
 11
151.1911711509
 21
191.500825905
 31
0.0
  0
LINE
  5
1AF
  8
0
  6
CONTINUOUS
 62
     7
 10
148.1911725219
 20
16.1008221142
 30
0.0
 11
148.1911725219
 21
11.1008194319
 31
0.0
  0
LINE
  5
1B0
  8
0
  6
CONTINUOUS
 62
     7
 10
128.2911709364
 20
168.3008206121
 30
0.0
 11
128.2911709364
 21
174.3008253209
 31
0.0
  0
LINE
  5
1B1
  8
0
  6
CONTINUOUS
 62
     7
 10
128.2911709364
 20
174.3008253209
 30
0.0
 11
127.0911729748
 21
174.3008253209
 31
0.0
  0
LINE
  5
1B2
  8
0
  6
CONTINUOUS
 62
     7
 10
127.0911729748
 20
174.3008253209
 30
0.0
 11
127.0911729748
 21
168.3008206121
 31
0.0
  0
LINE
  5
1B3
  8
0
  6
CONTINUOUS
 62
     7
 10
127.0911729748
 20
168.3008206121
 30
0.0
 11
128.2911709364
 21
168.3008206121
 31
0.0
  0
LINE
  5
1B4
  8
0
  6
CONTINUOUS
 62
     7
 10
128.2911709364
 20
148.3008210592
 30
0.0
 11
128.2911709364
 21
154.3008220426
 31
0.0
  0
LINE
  5
1B5
  8
0
  6
CONTINUOUS
 62
     7
 10
128.2911709364
 20
154.3008220426
 30
0.0
 11
127.0911729748
 21
154.3008220426
 31
0.0
  0
LINE
  5
1B6
  8
0
  6
CONTINUOUS
 62
     7
 10
127.0911729748
 20
154.3008220426
 30
0.0
 11
127.0911729748
 21
148.3008210592
 31
0.0
  0
LINE
  5
1B7
  8
0
  6
CONTINUOUS
 62
     7
 10
127.0911729748
 20
148.3008210592
 30
0.0
 11
128.2911709364
 21
148.3008210592
 31
0.0
  0
LINE
  5
1B8
  8
0
  6
CONTINUOUS
 62
     7
 10
128.2911709364
 20
128.3008215062
 30
0.0
 11
128.2911709364
 21
134.3008224897
 31
0.0
  0
LINE
  5
1B9
  8
0
  6
CONTINUOUS
 62
     7
 10
128.2911709364
 20
134.3008224897
 30
0.0
 11
127.0911729748
 21
134.3008224897
 31
0.0
  0
LINE
  5
1BA
  8
0
  6
CONTINUOUS
 62
     7
 10
127.0911729748
 20
134.3008224897
 30
0.0
 11
127.0911729748
 21
128.3008215062
 31
0.0
  0
LINE
  5
1BB
  8
0
  6
CONTINUOUS
 62
     7
 10
127.0911729748
 20
128.3008215062
 30
0.0
 11
128.2911709364
 21
128.3008215062
 31
0.0
  0
LINE
  5
1BC
  8
0
  6
CONTINUOUS
 62
     7
 10
128.2911709364
 20
108.3008224189
 30
0.0
 11
128.2911709364
 21
114.3008220054
 31
0.0
  0
LINE
  5
1BD
  8
0
  6
CONTINUOUS
 62
     7
 10
128.2911709364
 20
114.3008220054
 30
0.0
 11
127.0911729748
 21
114.3008220054
 31
0.0
  0
LINE
  5
1BE
  8
0
  6
CONTINUOUS
 62
     7
 10
127.0911729748
 20
114.3008220054
 30
0.0
 11
127.0911729748
 21
108.3008224189
 31
0.0
  0
LINE
  5
1BF
  8
0
  6
CONTINUOUS
 62
     7
 10
127.0911729748
 20
108.3008224189
 30
0.0
 11
128.2911709364
 21
108.3008224189
 31
0.0
  0
LINE
  5
1C0
  8
0
  6
CONTINUOUS
 62
     7
 10
128.2911709364
 20
88.3008224003
 30
0.0
 11
128.2911709364
 21
94.3008224524
 31
0.0
  0
LINE
  5
1C1
  8
0
  6
CONTINUOUS
 62
     7
 10
128.2911709364
 20
94.3008224524
 30
0.0
 11
127.0911729748
 21
94.3008224524
 31
0.0
  0
LINE
  5
1C2
  8
0
  6
CONTINUOUS
 62
     7
 10
127.0911729748
 20
94.3008224524
 30
0.0
 11
127.0911729748
 21
88.3008224003
 31
0.0
  0
LINE
  5
1C3
  8
0
  6
CONTINUOUS
 62
     7
 10
127.0911729748
 20
88.3008224003
 30
0.0
 11
128.2911709364
 21
88.3008224003
 31
0.0
  0
LINE
  5
1C4
  8
0
  6
CONTINUOUS
 62
     7
 10
128.2911709364
 20
68.3008228473
 30
0.0
 11
128.2911709364
 21
74.3008219681
 31
0.0
  0
LINE
  5
1C5
  8
0
  6
CONTINUOUS
 62
     7
 10
128.2911709364
 20
74.3008219681
 30
0.0
 11
127.0911729748
 21
74.3008219681
 31
0.0
  0
LINE
  5
1C6
  8
0
  6
CONTINUOUS
 62
     7
 10
127.0911729748
 20
74.3008219681
 30
0.0
 11
127.0911729748
 21
68.3008228473
 31
0.0
  0
LINE
  5
1C7
  8
0
  6
CONTINUOUS
 62
     7
 10
127.0911729748
 20
68.3008228473
 30
0.0
 11
128.2911709364
 21
68.3008228473
 31
0.0
  0
LINE
  5
1C8
  8
0
  6
CONTINUOUS
 62
     7
 10
128.2911709364
 20
28.3008200161
 30
0.0
 11
128.2911709364
 21
34.3008247248
 31
0.0
  0
LINE
  5
1C9
  8
0
  6
CONTINUOUS
 62
     7
 10
128.2911709364
 20
34.3008247248
 30
0.0
 11
127.0911729748
 21
34.3008247248
 31
0.0
  0
LINE
  5
1CA
  8
0
  6
CONTINUOUS
 62
     7
 10
127.0911729748
 20
34.3008247248
 30
0.0
 11
127.0911729748
 21
28.3008200161
 31
0.0
  0
LINE
  5
1CB
  8
0
  6
CONTINUOUS
 62
     7
 10
127.0911729748
 20
28.3008200161
 30
0.0
 11
128.2911709364
 21
28.3008200161
 31
0.0
  0
LINE
  5
1CC
  8
0
  6
CONTINUOUS
 62
     7
 10
128.2911709364
 20
48.3008232943
 30
0.0
 11
128.2911709364
 21
54.3008205525
 31
0.0
  0
LINE
  5
1CD
  8
0
  6
CONTINUOUS
 62
     7
 10
128.2911709364
 20
54.3008205525
 30
0.0
 11
127.0911729748
 21
54.3008205525
 31
0.0
  0
LINE
  5
1CE
  8
0
  6
CONTINUOUS
 62
     7
 10
127.0911729748
 20
54.3008205525
 30
0.0
 11
127.0911729748
 21
48.3008232943
 31
0.0
  0
LINE
  5
1CF
  8
0
  6
CONTINUOUS
 62
     7
 10
127.0911729748
 20
48.3008232943
 30
0.0
 11
128.2911709364
 21
48.3008232943
 31
0.0
  0
LINE
  5
1D0
  8
0
  6
CONTINUOUS
 62
     7
 10
126.1911726411
 20
16.1008221142
 30
0.0
 11
126.1911726411
 21
11.1008194319
 31
0.0
  0
LINE
  5
1D1
  8
0
  6
CONTINUOUS
 62
     7
 10
125.1911724771
 20
186.5008232228
 30
0.0
 11
125.1911724771
 21
16.1008221142
 31
0.0
  0
LINE
  5
1D2
  8
0
  6
CONTINUOUS
 62
     7
 10
126.1911726411
 20
186.5008232228
 30
0.0
 11
125.1911724771
 21
186.5008232228
 31
0.0
  0
LINE
  5
1D3
  8
0
  6
CONTINUOUS
 62
     7
 10
127.4407691176
 20
191.500825905
 30
0.0
 11
126.1911726411
 21
191.500825905
 31
0.0
  0
LINE
  5
1D4
  8
0
  6
CONTINUOUS
 62
     7
 10
129.1911712702
 20
191.500825905
 30
0.0
 11
127.9415747936
 21
191.500825905
 31
0.0
  0
LINE
  5
1D5
  8
0
  6
CONTINUOUS
 62
     7
 10
130.1911732967
 20
16.1008221142
 30
0.0
 11
130.1911732967
 21
186.5008232228
 31
0.0
  0
LINE
  5
1D6
  8
0
  6
CONTINUOUS
 62
     7
 10
129.1911712702
 20
16.1008221142
 30
0.0
 11
130.1911732967
 21
16.1008221142
 31
0.0
  0
LINE
  5
1D7
  8
0
  6
CONTINUOUS
 62
     7
 10
129.1911712702
 20
11.1008194319
 30
0.0
 11
129.1911712702
 21
16.1008221142
 31
0.0
  0
LINE
  5
1D8
  8
0
  6
CONTINUOUS
 62
     7
 10
127.9415747936
 20
11.1008194319
 30
0.0
 11
129.1911712702
 21
11.1008194319
 31
0.0
  0
LINE
  5
1D9
  8
0
  6
CONTINUOUS
 62
     7
 10
126.1911726411
 20
11.1008194319
 30
0.0
 11
127.4407691176
 21
11.1008194319
 31
0.0
  0
LINE
  5
1DA
  8
0
  6
CONTINUOUS
 62
     7
 10
125.1911724771
 20
16.1008221142
 30
0.0
 11
126.1911726411
 21
16.1008221142
 31
0.0
  0
LINE
  5
1DB
  8
0
  6
CONTINUOUS
 62
     7
 10
126.1911726411
 20
191.500825905
 30
0.0
 11
126.1911726411
 21
186.5008232228
 31
0.0
  0
LINE
  5
1DC
  8
0
  6
CONTINUOUS
 62
     7
 10
129.1911712702
 20
186.5008232228
 30
0.0
 11
129.1911712702
 21
191.500825905
 31
0.0
  0
LINE
  5
1DD
  8
0
  6
CONTINUOUS
 62
     7
 10
130.1911732967
 20
186.5008232228
 30
0.0
 11
129.1911712702
 21
186.5008232228
 31
0.0
  0
LINE
  5
1DE
  8
0
  6
CONTINUOUS
 62
     7
 10
191.1911739822
 20
3.5008248917
 30
0.0
 11
191.1911739822
 21
199.5008197657
 31
0.0
  0
LINE
  5
1DF
  8
0
  6
CONTINUOUS
 62
     7
 10
86.1911716725
 20
199.5008197657
 30
0.0
 11
86.1911716725
 21
3.5008248917
 31
0.0
  0
LINE
  5
1E0
  8
0
  6
CONTINUOUS
 62
     7
 10
191.1911739822
 20
199.5008197657
 30
0.0
 11
86.1911716725
 21
199.5008197657
 31
0.0
  0
LINE
  5
1E1
  8
0
  6
CONTINUOUS
 62
     7
 10
86.1911716725
 20
3.5008248917
 30
0.0
 11
191.1911739822
 21
3.5008248917
 31
0.0
  0
DIMENSION
  5
1E2
  8
0
  6
CONTINUOUS
 62
     7
  2
*D1
 10
86.1911721344
 20
205.4789637891
 30
0.0
 11
137.6044956336
 21
205.4789637891
 31
0.0
 70
   160
  3
SLDDIMSTYLE0
 13
191.1911721344
 23
199.5008223287
 33
0.0
 14
86.1911721344
 24
199.5008223287
 34
0.0
  0
DIMENSION
  5
210
  8
0
  6
CONTINUOUS
 62
     7
  2
*D2
 10
79.5718939356
 20
3.5008223287
 30
0.0
 11
79.5718939356
 21
111.6150630329
 31
0.0
 70
   160
  3
SLDDIMSTYLE0
 13
86.1911721344
 23
199.5008223287
 33
0.0
 14
86.1911721344
 24
3.5008223287
 34
0.0
 50
90.0
  0
ENDSEC
  0
EOF
