  0
SECTION
  2
HEADER
  9
$ACADVER
  1
AC1009
  9
$DWGCODEPAGE
  3
ansi_936
  9
$INSBASE
 10
0.0
 20
0.0
 30
0.0
  9
$EXTMIN
 10
0.0
 20
0.0
 30
0.0
  9
$EXTMAX
 10
297.0
 20
210.0
 30
0.0
  9
$LIMMIN
 10
0.0
 20
0.0
  9
$LIMMAX
 10
297.0
 20
210.0
  9
$ORTHOMODE
 70
     0
  9
$REGENMODE
 70
     1
  9
$FILLMODE
 70
     1
  9
$QTEXTMODE
 70
     0
  9
$MIRRTEXT
 70
     1
  9
$DRAGMODE
 70
     2
  9
$LTSCALE
 40
1.0
  9
$OSMODE
 70
    37
  9
$ATTMODE
 70
     1
  9
$TEXTSIZE
 40
3.175
  9
$TRACEWID
 40
1.0
  9
$TEXTSTYLE
  7
STANDARD
  9
$CLAYER
  8
0
  9
$CELTYPE
  6
BYLAYER
  9
$CECOLOR
 62
   256
  9
$DIMSCALE
 40
1.0
  9
$DIMASZ
 40
3.302
  9
$DIMEXO
 40
1.27
  9
$DIMDLI
 40
3.75
  9
$DIMRND
 40
0.0
  9
$DIMDLE
 40
0.0
  9
$DIMEXE
 40
3.175
  9
$DIMTP
 40
0.0
  9
$DIMTM
 40
0.0
  9
$DIMTXT
 40
3.175
  9
$DIMCEN
 40
2.5
  9
$DIMTSZ
 40
0.0
  9
$DIMTOL
 70
     0
  9
$DIMLIM
 70
     0
  9
$DIMTIH
 70
     1
  9
$DIMTOH
 70
     1
  9
$DIMSE1
 70
     0
  9
$DIMSE2
 70
     0
  9
$DIMTAD
 70
     0
  9
$DIMZIN
 70
     0
  9
$DIMBLK
  1

  9
$DIMASO
 70
     1
  9
$DIMSHO
 70
     1
  9
$DIMPOST
  1

  9
$DIMAPOST
  1

  9
$DIMALT
 70
     0
  9
$DIMALTD
 70
     3
  9
$DIMALTF
 40
0.0393700787
  9
$DIMLFAC
 40
1.0
  9
$DIMTOFL
 70
     1
  9
$DIMTVP
 40
0.0
  9
$DIMTIX
 70
     0
  9
$DIMSOXD
 70
     0
  9
$DIMSAH
 70
     0
  9
$DIMBLK1
  1

  9
$DIMBLK2
  1

  9
$DIMSTYLE
  2
ISO-25
  9
$DIMCLRD
 70
     0
  9
$DIMCLRE
 70
     0
  9
$DIMCLRT
 70
     0
  9
$DIMTFAC
 40
1.0
  9
$DIMGAP
 40
1.524
  9
$LUNITS
 70
     2
  9
$LUPREC
 70
     2
  9
$SKETCHINC
 40
1.0
  9
$FILLETRAD
 40
10.0
  9
$AUNITS
 70
     0
  9
$AUPREC
 70
     2
  9
$MENU
  1
.
  9
$ELEVATION
 40
0.0
  9
$PELEVATION
 40
0.0
  9
$THICKNESS
 40
0.0
  9
$LIMCHECK
 70
     0
  9
$CHAMFERA
 40
10.0
  9
$CHAMFERB
 40
10.0
  9
$SKPOLY
 70
     0
  9
$TDCREATE
 40
2456937.687089271
  9
$TDUPDATE
 40
2456937.687089283
  9
$TDINDWG
 40
0.0000000116
  9
$TDUSRTIMER
 40
0.0000000116
  9
$USRTIMER
 70
     1
  9
$ANGBASE
 50
0.0
  9
$ANGDIR
 70
     0
  9
$PDMODE
 70
     0
  9
$PDSIZE
 40
-1.0
  9
$PLINEWID
 40
0.0
  9
$COORDS
 70
     1
  9
$SPLFRAME
 70
     0
  9
$SPLINETYPE
 70
     6
  9
$SPLINESEGS
 70
     8
  9
$ATTDIA
 70
     0
  9
$ATTREQ
 70
     1
  9
$HANDLING
 70
     1
  9
$HANDSEED
  5
8B
  9
$SURFTAB1
 70
     6
  9
$SURFTAB2
 70
     6
  9
$SURFTYPE
 70
     6
  9
$SURFU
 70
     6
  9
$SURFV
 70
     6
  9
$UCSNAME
  2

  9
$UCSORG
 10
0.0
 20
0.0
 30
0.0
  9
$UCSXDIR
 10
1.0
 20
0.0
 30
0.0
  9
$UCSYDIR
 10
0.0
 20
1.0
 30
0.0
  9
$PUCSNAME
  2

  9
$PUCSORG
 10
0.0
 20
0.0
 30
0.0
  9
$PUCSXDIR
 10
1.0
 20
0.0
 30
0.0
  9
$PUCSYDIR
 10
0.0
 20
1.0
 30
0.0
  9
$USERI1
 70
     0
  9
$USERI2
 70
     0
  9
$USERI3
 70
     0
  9
$USERI4
 70
     0
  9
$USERI5
 70
     0
  9
$USERR1
 40
0.0
  9
$USERR2
 40
0.0
  9
$USERR3
 40
0.0
  9
$USERR4
 40
0.0
  9
$USERR5
 40
0.0
  9
$WORLDVIEW
 70
     1
  9
$SHADEDGE
 70
     3
  9
$SHADEDIF
 70
    70
  9
$TILEMODE
 70
     1
  9
$MAXACTVP
 70
    64
  9
$PLIMCHECK
 70
     0
  9
$PEXTMIN
 10
1.0000000000E+20
 20
1.0000000000E+20
 30
1.0000000000E+20
  9
$PEXTMAX
 10
-1.0000000000E+20
 20
-1.0000000000E+20
 30
-1.0000000000E+20
  9
$PLIMMIN
 10
0.0
 20
0.0
  9
$PLIMMAX
 10
420.0
 20
297.0
  9
$UNITMODE
 70
     0
  9
$VISRETAIN
 70
     1
  9
$PLINEGEN
 70
     0
  9
$PSLTSCALE
 70
     1
  0
ENDSEC
  0
SECTION
  2
TABLES
  0
TABLE
  2
VPORT
 70
     1
  0
VPORT
  2
*ACTIVE
 70
     0
 10
0.0
 20
0.0
 11
1.0
 21
1.0
 12
148.5
 22
105.0
 13
0.0
 23
0.0
 14
10.0
 24
10.0
 15
10.0
 25
10.0
 16
0.0
 26
0.0
 36
1.0
 17
0.0
 27
0.0
 37
0.0
 40
210.0
 41
1.4142857143
 42
50.0
 43
0.0
 44
0.0
 50
0.0
 51
0.0
 71
     0
 72
  2000
 73
     1
 74
     3
 75
     0
 76
     0
 77
     0
 78
     0
  0
ENDTAB
  0
TABLE
  2
LTYPE
 70
     6
  0
LTYPE
  2
CONTINUOUS
 70
     0
  3
Solid line
 72
    65
 73
     0
 40
0.0
  0
LTYPE
  2
HIDDEN
 70
     0
  3
Hidden __ __ __ __ __ __ __ __ __ __ __ __ __ __
 72
    65
 73
     2
 40
1.905
 49
1.27
 49
-0.635
  0
LTYPE
  2
PHANTOM
 70
     0
  3
Phantom ______  __  __  ______  __  __  ______
 72
    65
 73
     6
 40
12.7
 49
6.35
 49
-1.27
 49
1.27
 49
-1.27
 49
1.27
 49
-1.27
  0
LTYPE
  2
CENTER
 70
     0
  3
Center ____ _ ____ _ ____ _ ____ _ ____ _ ____
 72
    65
 73
     4
 40
10.16
 49
6.35
 49
-1.27
 49
1.27
 49
-1.27
  0
LTYPE
  2
CENTERX2
 70
     0
  3
Center (2x) ________  __  ________  __  _____
 72
    65
 73
     4
 40
20.32
 49
12.7
 49
-2.54
 49
2.54
 49
-2.54
  0
LTYPE
  2
DOT2
 70
     0
  3
Dot (.5x) ........................................
 72
    65
 73
     2
 40
0.635
 49
0.0
 49
-0.635
  0
ENDTAB
  0
TABLE
  2
LAYER
 70
     1
  0
LAYER
  2
0
 70
     0
 62
     7
  6
CONTINUOUS
  0
ENDTAB
  0
TABLE
  2
STYLE
 70
     1
  0
STYLE
  2
STANDARD
 70
     0
 40
0.0
 41
1.0
 50
0.0
 71
     0
 42
2.5
  3
txt
  4

  0
ENDTAB
  0
TABLE
  2
VIEW
 70
     0
  0
ENDTAB
  0
TABLE
  2
UCS
 70
     0
  0
ENDTAB
  0
TABLE
  2
APPID
 70
     1
  0
APPID
  2
ACAD
 70
     0
  0
ENDTAB
  0
TABLE
  2
DIMSTYLE
 70
     2
  0
DIMSTYLE
  2
ISO-25
 70
     0
  3

  4

  5

  6

  7

 40
1.0
 41
2.5
 42
0.625
 43
3.75
 44
1.25
 45
0.0
 46
0.0
 47
0.0
 48
0.0
140
2.5
141
2.5
142
0.0
143
0.0393700787
144
1.0
145
0.0
146
1.0
147
0.625
 71
     0
 72
     0
 73
     0
 74
     0
 75
     0
 76
     0
 77
     1
 78
     8
170
     0
171
     3
172
     1
173
     0
174
     0
175
     0
176
     0
177
     0
178
     0
  0
DIMSTYLE
  2
SLDDIMSTYLE0
 70
     0
  3

  4

  5

  6

  7

 40
1.0
 41
3.302
 42
0.0625
 43
0.38
 44
0.0
 45
0.000000001
 46
0.0
 47
0.0
 48
0.0
140
3.175
141
0.09
142
0.0
143
25.4
144
1.0
145
0.0
146
1.0
147
0.79375
 71
     0
 72
     0
 73
     1
 74
     1
 75
     0
 76
     0
 77
     0
 78
    12
170
     0
171
     2
172
     0
173
     1
174
     0
175
     0
176
     0
177
     0
178
     0
  0
ENDTAB
  0
ENDSEC
  0
SECTION
  2
BLOCKS
  0
BLOCK
  8
0
  2
$MODEL_SPACE
 70
     0
 10
0.0
 20
0.0
 30
0.0
  3
$MODEL_SPACE
  1

  0
ENDBLK
  5
21
  8
0
  0
BLOCK
 67
     1
  8
0
  2
$PAPER_SPACE
 70
     0
 10
0.0
 20
0.0
 30
0.0
  3
$PAPER_SPACE
  1

  0
ENDBLK
  5
1D
 67
     1
  8
0
  0
BLOCK
  8
0
  2
*D1
 70
     1
 10
0.0
 20
0.0
 30
0.0
  3
*D1
  1

  0
SOLID
  5
7B
  8
0
  6
CONTINUOUS
 62
     7
 10
140.6953378136
 20
129.8881213187
 30
0.0
 11
141.2033378136
 21
133.1901213187
 31
0.0
 12
140.1873378136
 22
133.1901213187
 32
0.0
 13
140.1873378136
 23
133.1901213187
 33
0.0
  0
SOLID
  5
7C
  8
0
  6
CONTINUOUS
 62
     7
 10
140.6953378136
 20
112.2541467225
 30
0.0
 11
140.1873378136
 21
108.9521467225
 31
0.0
 12
141.2033378136
 22
108.9521467225
 32
0.0
 13
141.2033378136
 23
108.9521467225
 33
0.0
  0
LINE
  5
7D
  8
0
  6
CONTINUOUS
 62
     7
 10
127.4653378136
 20
129.8881213187
 30
0.0
 11
143.8703378136
 21
129.8881213187
 31
0.0
  0
LINE
  5
7E
  8
0
  6
CONTINUOUS
 62
     7
 10
126.9653378136
 20
112.2541467225
 30
0.0
 11
143.8703378136
 21
112.2541467225
 31
0.0
  0
LINE
  5
7F
  8
0
  6
CONTINUOUS
 62
     7
 10
140.6953378136
 20
129.8881213187
 30
0.0
 11
140.6953378136
 21
136.2381213187
 31
0.0
  0
LINE
  5
80
  8
0
  6
CONTINUOUS
 62
     7
 10
140.6953378136
 20
112.2541467225
 30
0.0
 11
140.6953378136
 21
105.9041467225
 31
0.0
  0
TEXT
  5
81
  8
0
  6
CONTINUOUS
 62
     7
 10
134.2441870549
 20
119.2533638846
 30
0.0
 40
3.175
  1
17.634
 41
0.7
 11
134.2441870549
 21
118.131763188
 31
0.0
 73
     1
  0
ENDBLK
  5
7A
  8
0
  0
ENDSEC
  0
SECTION
  2
ENTITIES
  0
CIRCLE
  5
40
  8
0
  6
CONTINUOUS
 62
     7
 10
119.4953378136
 20
123.4541467225
 30
0.0
 40
1.25
  0
LINE
  5
41
  8
0
  6
CONTINUOUS
 62
     7
 10
120.3313766925
 20
128.6181081286
 30
0.0
 11
118.9171631301
 21
128.6181081286
 31
0.0
  0
LINE
  5
42
  8
0
  6
CONTINUOUS
 62
     7
 10
120.3313766925
 20
128.6181081286
 30
0.0
 11
123.6953378136
 21
125.2541467747
 31
0.0
  0
LINE
  5
43
  8
0
  6
CONTINUOUS
 62
     7
 10
125.6953379086
 20
125.2541467747
 30
0.0
 11
123.6953378136
 21
125.2541467747
 31
0.0
  0
LINE
  5
44
  8
0
  6
CONTINUOUS
 62
     7
 10
125.6953379086
 20
129.3881209766
 30
0.0
 11
125.6953379086
 21
125.2541467747
 31
0.0
  0
ARC
  5
45
  8
0
  6
CONTINUOUS
 62
     7
 10
126.1953378136
 20
129.3881213187
 30
0.0
 40
0.5
 50
60.0
 51
180.0
  0
LINE
  5
46
  8
0
  6
CONTINUOUS
 62
     7
 10
130.4453379887
 20
127.5117332315
 30
0.0
 11
126.4453377987
 21
129.8211338198
 31
0.0
  0
ARC
  5
47
  8
0
  6
CONTINUOUS
 62
     7
 10
130.1953378136
 20
127.078720242
 30
0.0
 40
0.5000000000000041
 50
0.0
 51
60.0
  0
LINE
  5
48
  8
0
  6
CONTINUOUS
 62
     7
 10
130.6953380296
 20
117.2541466275
 30
0.0
 11
130.6953380296
 21
127.0787203884
 31
0.0
  0
ARC
  5
49
  8
0
  6
CONTINUOUS
 62
     7
 10
125.6953378136
 20
117.2541467225
 30
0.0
 40
5.000000000000014
 50
270.0
 51
0.0
  0
LINE
  5
4A
  8
0
  6
CONTINUOUS
 62
     7
 10
115.8707641477
 20
112.2541465064
 30
0.0
 11
125.6953379086
 21
112.2541465064
 31
0.0
  0
ARC
  5
4B
  8
0
  6
CONTINUOUS
 62
     7
 10
115.8707642941
 20
112.7541467225
 30
0.0
 40
0.5000000000000041
 50
210.0
 51
270.0
  0
LINE
  5
4C
  8
0
  6
CONTINUOUS
 62
     7
 10
113.1283507163
 20
116.5041467374
 30
0.0
 11
115.4377513046
 21
112.5041465474
 31
0.0
  0
ARC
  5
4D
  8
0
  6
CONTINUOUS
 62
     7
 10
113.5613632174
 20
116.7541467225
 30
0.0
 40
0.5000000000000041
 50
90.0
 51
210.0
  0
LINE
  5
4E
  8
0
  6
CONTINUOUS
 62
     7
 10
117.6953377614
 20
117.2541466275
 30
0.0
 11
113.5613635594
 21
117.2541466275
 31
0.0
  0
LINE
  5
4F
  8
0
  6
CONTINUOUS
 62
     7
 10
117.6953377614
 20
119.2541467225
 30
0.0
 11
117.6953377614
 21
117.2541466275
 31
0.0
  0
LINE
  5
50
  8
0
  6
CONTINUOUS
 62
     7
 10
117.6953377614
 20
119.2541467225
 30
0.0
 11
114.3313764075
 21
122.6181078436
 31
0.0
  0
LINE
  5
51
  8
0
  6
CONTINUOUS
 62
     7
 10
114.3313764075
 20
124.032321406
 30
0.0
 11
114.3313764075
 21
122.6181078436
 31
0.0
  0
LINE
  5
52
  8
0
  6
CONTINUOUS
 62
     7
 10
118.9171631301
 20
128.6181081286
 30
0.0
 11
114.3313764075
 21
124.032321406
 31
0.0
  0
LINE
  5
53
  8
0
  6
CENTERX2
 62
     7
 10
126.1953378136
 20
129.8881213187
 30
0.0
 11
137.0979335695
 21
129.8881213187
 31
0.0
  0
DIMENSION
  5
54
  8
0
  6
CONTINUOUS
 62
     7
  2
*D1
 10
140.6953378136
 20
112.2541467225
 30
0.0
 11
140.6953378136
 21
120.6516814806
 31
0.0
 70
   160
  3
SLDDIMSTYLE0
 13
126.1953378136
 23
129.8881213187
 33
0.0
 14
125.6953378136
 24
112.2541467225
 34
0.0
 50
90.0
  0
TEXT
  5
82
  8
0
  6
CONTINUOUS
 62
     7
 10
107.2361283003
 20
128.9364455373
 30
0.0
 40
3.175
  1
M3
 41
0.7
 11
107.2361283003
 21
127.8148448407
 31
0.0
 73
     1
  0
ENDSEC
  0
EOF
